ISO-10303-21;
HEADER;
FILE_DESCRIPTION (( 'STEP AP214' ),
    '1' );
FILE_NAME ('AWK107BJ106MV-T.STEP',
    '2019-12-26T22:41:43',
    ( '' ),
    ( '' ),
    'SwSTEP 2.0',
    'SolidWorks 2018',
    '' );
FILE_SCHEMA (( 'AUTOMOTIVE_DESIGN' ));
ENDSEC;

DATA;
#1 = EDGE_CURVE ( 'NONE', #1266, #273, #839, .T. ) ;
#2 = DIRECTION ( 'NONE',  ( 1.000000000000000000, 0.0000000000000000000, 1.355252715606880296E-16 ) ) ;
#3 = DIRECTION ( 'NONE',  ( 1.000000000000000000, -0.0000000000000000000, -1.355252715606880296E-16 ) ) ;
#4 = AXIS2_PLACEMENT_3D ( 'NONE', #901, #22, #216 ) ;
#5 = DIRECTION ( 'NONE',  ( 1.000000000000000000, 0.0000000000000000000, 0.0000000000000000000 ) ) ;
#6 = LINE ( 'NONE', #613, #1224 ) ;
#7 = CARTESIAN_POINT ( 'NONE',  ( -0.1499999999999999389, 0.02000000000000005246, -0.7933333333333333348 ) ) ;
#8 = MECHANICAL_DESIGN_GEOMETRIC_PRESENTATION_REPRESENTATION (  '', ( #594 ), #191 ) ;
#9 = SURFACE_STYLE_FILL_AREA ( #93 ) ;
#10 = VECTOR ( 'NONE', #1128, 1000.000000000000000 ) ;
#11 = LINE ( 'NONE', #1194, #399 ) ;
#12 = ORIENTED_EDGE ( 'NONE', *, *, #285, .T. ) ;
#13 = ORIENTED_EDGE ( 'NONE', *, *, #680, .F. ) ;
#14 = ORIENTED_EDGE ( 'NONE', *, *, #518, .T. ) ;
#15 = EDGE_CURVE ( 'NONE', #197, #787, #703, .T. ) ;
#16 = EDGE_CURVE ( 'NONE', #273, #1095, #693, .T. ) ;
#17 = EDGE_CURVE ( 'NONE', #621, #156, #11, .T. ) ;
#18 = AXIS2_PLACEMENT_3D ( 'NONE', #1244, #648, #75 ) ;
#19 = VECTOR ( 'NONE', #851, 1000.000000000000000 ) ;
#20 = PLANE ( 'NONE',  #207 ) ;
#21 = CIRCLE ( 'NONE', #956, 0.01999999999999999695 ) ;
#22 = DIRECTION ( 'NONE',  ( -0.0000000000000000000, 0.0000000000000000000, 1.000000000000000000 ) ) ;
#23 = FACE_OUTER_BOUND ( 'NONE', #1112, .T. ) ;
#24 = VECTOR ( 'NONE', #306, 1000.000000000000000 ) ;
#25 = DIRECTION ( 'NONE',  ( 0.0000000000000000000, 0.0000000000000000000, -1.000000000000000000 ) ) ;
#26 = EDGE_LOOP ( 'NONE', ( #1158, #1080, #937, #1003 ) ) ;
#27 = DIRECTION ( 'NONE',  ( -1.355252715606880296E-16, 0.0000000000000000000, 1.000000000000000000 ) ) ;
#28 = CARTESIAN_POINT ( 'NONE',  ( -0.3799999999999997269, 0.5500000000000000444, 0.7800000000000002487 ) ) ;
#29 = ORIENTED_EDGE ( 'NONE', *, *, #492, .F. ) ;
#30 = AXIS2_PLACEMENT_3D ( 'NONE', #939, #262, #946 ) ;
#31 = ORIENTED_EDGE ( 'NONE', *, *, #1233, .T. ) ;
#32 = DIRECTION ( 'NONE',  ( 0.0000000000000000000, 0.0000000000000000000, -1.000000000000000000 ) ) ;
#33 = CARTESIAN_POINT ( 'NONE',  ( 0.1500000000191903382, 0.02000000000000005246, 0.7800000000000002487 ) ) ;
#34 = DIRECTION ( 'NONE',  ( 0.0000000000000000000, -1.000000000000000000, 0.0000000000000000000 ) ) ;
#35 = ADVANCED_FACE ( 'NONE', ( #283 ), #918, .F. ) ;
#36 = CARTESIAN_POINT ( 'NONE',  ( -0.3799999999999997824, 0.5500000000000000444, 0.8000000000000002665 ) ) ;
#37 = AXIS2_PLACEMENT_3D ( 'NONE', #861, #777, #865 ) ;
#38 = DIRECTION ( 'NONE',  ( 1.000000000000000000, -0.0000000000000000000, -0.0000000000000000000 ) ) ;
#39 = DIRECTION ( 'NONE',  ( -1.000000000000000000, -0.0000000000000000000, 8.673617379884036705E-17 ) ) ;
#40 = CARTESIAN_POINT ( 'NONE',  ( -0.3800000000000000600, 0.5500000000000000444, -0.7799999999999999156 ) ) ;
#41 = CARTESIAN_POINT ( 'NONE',  ( 0.3999999999999997446, 0.02000000000000005246, 0.7800000000000002487 ) ) ;
#42 = CARTESIAN_POINT ( 'NONE',  ( -0.1499999999999997446, 0.5500000000000000444, 0.7800000000000002487 ) ) ;
#43 = DIRECTION ( 'NONE',  ( 2.710505431213753985E-15, -1.000000000000000000, 0.0000000000000000000 ) ) ;
#44 = LINE ( 'NONE', #645, #890 ) ;
#45 = ADVANCED_FACE ( 'NONE', ( #1024 ), #184, .T. ) ;
#46 = DIRECTION ( 'NONE',  ( 0.0000000000000000000, -1.000000000000000000, -0.0000000000000000000 ) ) ;
#47 = FACE_OUTER_BOUND ( 'NONE', #244, .T. ) ;
#48 = DIRECTION ( 'NONE',  ( -0.0000000000000000000, -0.0000000000000000000, -1.000000000000000000 ) ) ;
#49 = DIRECTION ( 'NONE',  ( 0.0000000000000000000, 0.0000000000000000000, -1.000000000000000000 ) ) ;
#50 = ORIENTED_EDGE ( 'NONE', *, *, #372, .T. ) ;
#51 = EDGE_LOOP ( 'NONE', ( #288, #1144, #95, #160 ) ) ;
#52 = ORIENTED_EDGE ( 'NONE', *, *, #938, .F. ) ;
#53 = DIRECTION ( 'NONE',  ( -1.000000000000000000, -0.0000000000000000000, 8.673617379884036705E-17 ) ) ;
#54 = ORIENTED_EDGE ( 'NONE', *, *, #161, .F. ) ;
#55 = EDGE_CURVE ( 'NONE', #1266, #666, #977, .T. ) ;
#56 = AXIS2_PLACEMENT_3D ( 'NONE', #344, #942, #734 ) ;
#57 = CARTESIAN_POINT ( 'NONE',  ( 0.1499999999999997446, 0.5300000000000000266, 0.8000000000000002665 ) ) ;
#58 = AXIS2_PLACEMENT_3D ( 'NONE', #1223, #715, #626 ) ;
#59 = DIRECTION ( 'NONE',  ( -1.000000000000000000, -0.0000000000000000000, 8.673617379884036705E-17 ) ) ;
#60 = CIRCLE ( 'NONE', #18, 0.01999999999999999695 ) ;
#61 = CARTESIAN_POINT ( 'NONE',  ( -0.3800000000000000044, 0.02000000000000005246, -0.7999999999999999334 ) ) ;
#62 = DIRECTION ( 'NONE',  ( 1.000000000000000000, -0.0000000000000000000, 0.0000000000000000000 ) ) ;
#63 = CIRCLE ( 'NONE', #404, 0.02000000000000005246 ) ;
#64 = CARTESIAN_POINT ( 'NONE',  ( -0.3800000000000000044, 0.5300000000000000266, -0.7799999999999999156 ) ) ;
#65 = VECTOR ( 'NONE', #1207, 1000.000000000000000 ) ;
#66 = VECTOR ( 'NONE', #324, 1000.000000000000000 ) ;
#67 = CARTESIAN_POINT ( 'NONE',  ( -0.1499999999999999112, 0.006666666666666666227, -0.7799999999999994715 ) ) ;
#68 = ADVANCED_FACE ( 'NONE', ( #771 ), #20, .T. ) ;
#69 = ORIENTED_EDGE ( 'NONE', *, *, #472, .F. ) ;
#70 = ORIENTED_EDGE ( 'NONE', *, *, #285, .F. ) ;
#71 = ORIENTED_EDGE ( 'NONE', *, *, #356, .F. ) ;
#72 = CARTESIAN_POINT ( 'NONE',  ( -0.1499999999999997446, 0.5300000000000000266, 0.7800000000000002487 ) ) ;
#73 = DIRECTION ( 'NONE',  ( -0.0000000000000000000, 1.000000000000000000, -0.0000000000000000000 ) ) ;
#74 = CARTESIAN_POINT ( 'NONE',  ( 0.3999999999999997446, 0.5500000000000000444, 0.8000000000000002665 ) ) ;
#75 = DIRECTION ( 'NONE',  ( 1.000000000000000000, 0.0000000000000000000, 0.0000000000000000000 ) ) ;
#76 = EDGE_CURVE ( 'NONE', #1185, #274, #152, .T. ) ;
#77 = COLOUR_RGB ( '',0.7921568627450980005, 0.8196078431372548767, 0.9333333333333333481 ) ;
#78 = VECTOR ( 'NONE', #38, 1000.000000000000000 ) ;
#79 = DIRECTION ( 'NONE',  ( 0.0000000000000000000, 0.0000000000000000000, 1.000000000000000000 ) ) ;
#80 = ADVANCED_FACE ( 'NONE', ( #507 ), #575, .T. ) ;
#81 = AXIS2_PLACEMENT_3D ( 'NONE', #1252, #957, #455 ) ;
#82 = LINE ( 'NONE', #682, #347 ) ;
#83 = VECTOR ( 'NONE', #717, 1000.000000000000000 ) ;
#84 = ORIENTED_EDGE ( 'NONE', *, *, #1132, .F. ) ;
#85 = ORIENTED_EDGE ( 'NONE', *, *, #91, .F. ) ;
#86 = SURFACE_SIDE_STYLE ('',( #9 ) ) ;
#87 = EDGE_LOOP ( 'NONE', ( #389, #305, #118, #872 ) ) ;
#88 = FILL_AREA_STYLE_COLOUR ( '', #1211 ) ;
#89 = DIRECTION ( 'NONE',  ( -1.694065894508600185E-16, 0.0000000000000000000, 1.000000000000000000 ) ) ;
#90 = EDGE_CURVE ( 'NONE', #1173, #367, #116, .T. ) ;
#91 = EDGE_CURVE ( 'NONE', #604, #1002, #1143, .T. ) ;
#92 = CIRCLE ( 'NONE', #1218, 0.01999999999999999695 ) ;
#93 = FILL_AREA_STYLE ('',( #669 ) ) ;
#94 = CIRCLE ( 'NONE', #814, 0.02000000000000005246 ) ;
#95 = ORIENTED_EDGE ( 'NONE', *, *, #398, .F. ) ;
#96 = EDGE_CURVE ( 'NONE', #418, #787, #724, .T. ) ;
#97 = EDGE_LOOP ( 'NONE', ( #527, #911, #743, #1279 ) ) ;
#98 = VERTEX_POINT ( 'NONE', #232 ) ;
#99 = ORIENTED_EDGE ( 'NONE', *, *, #971, .F. ) ;
#100 = AXIS2_PLACEMENT_3D ( 'NONE', #847, #355, #738 ) ;
#101 = DIRECTION ( 'NONE',  ( 0.0000000000000000000, 0.0000000000000000000, 1.000000000000000000 ) ) ;
#102 = CARTESIAN_POINT ( 'NONE',  ( -0.4000000000000000222, 0.02000000000000005246, -0.7999999999999999334 ) ) ;
#103 = CIRCLE ( 'NONE', #419, 0.02000000000000005246 ) ;
#104 = COLOUR_RGB ( '',0.7921568627450980005, 0.8196078431372548767, 0.9333333333333333481 ) ;
#105 = LINE ( 'NONE', #765, #526 ) ;
#106 = DIRECTION ( 'NONE',  ( 1.355252715606880296E-16, -0.0000000000000000000, -1.000000000000000000 ) ) ;
#107 = CLOSED_SHELL ( 'NONE', ( #123, #544, #143, #633, #1204, #428, #913, #451, #238, #642, #45, #134, #536, #1135, #1039, #710, #358, #1120 ) ) ;
#108 = EDGE_LOOP ( 'NONE', ( #1216, #1280, #259, #1094 ) ) ;
#109 = VERTEX_POINT ( 'NONE', #998 ) ;
#110 = EDGE_LOOP ( 'NONE', ( #993, #852, #478, #1068 ) ) ;
#111 = AXIS2_PLACEMENT_3D ( 'NONE', #258, #357, #628 ) ;
#112 = DIRECTION ( 'NONE',  ( 0.0000000000000000000, 0.0000000000000000000, 1.000000000000000000 ) ) ;
#113 = CYLINDRICAL_SURFACE ( 'NONE', #1066, 0.02000000000000005246 ) ;
#114 = AXIS2_PLACEMENT_3D ( 'NONE', #871, #281, #581 ) ;
#115 = FACE_OUTER_BOUND ( 'NONE', #209, .T. ) ;
#116 = LINE ( 'NONE', #606, #83 ) ;
#117 = DIRECTION ( 'NONE',  ( 0.0000000000000000000, -1.000000000000000000, 0.0000000000000000000 ) ) ;
#118 = ORIENTED_EDGE ( 'NONE', *, *, #297, .T. ) ;
#119 = ORIENTED_EDGE ( 'NONE', *, *, #566, .T. ) ;
#120 = DIRECTION ( 'NONE',  ( -1.000000000000000000, 0.0000000000000000000, -1.694065894508600185E-16 ) ) ;
#121 = ORIENTED_EDGE ( 'NONE', *, *, #1026, .T. ) ;
#122 = CARTESIAN_POINT ( 'NONE',  ( 0.3799999999999997269, 0.02000000000000000042, 0.7800000000000002487 ) ) ;
#123 = ADVANCED_FACE ( 'NONE', ( #598 ), #139, .F. ) ;
#124 = CARTESIAN_POINT ( 'NONE',  ( -0.3799999999999997269, 0.5300000000000000266, 0.7800000000000002487 ) ) ;
#125 = AXIS2_PLACEMENT_3D ( 'NONE', #423, #1225, #821 ) ;
#126 = DIRECTION ( 'NONE',  ( 0.0000000000000000000, 1.000000000000000000, 0.0000000000000000000 ) ) ;
#127 = DIRECTION ( 'NONE',  ( 0.0000000000000000000, 0.0000000000000000000, 1.000000000000000000 ) ) ;
#128 = CARTESIAN_POINT ( 'NONE',  ( -0.1499999999999998002, 0.5300000000000000266, 0.7933333333333335569 ) ) ;
#129 = ADVANCED_FACE ( 'NONE', ( #1059 ), #665, .T. ) ;
#130 = VECTOR ( 'NONE', #1175, 1000.000000000000000 ) ;
#131 = DIRECTION ( 'NONE',  ( 0.0000000000000000000, 0.0000000000000000000, -1.000000000000000000 ) ) ;
#132 = FACE_OUTER_BOUND ( 'NONE', #789, .T. ) ;
#133 = VERTEX_POINT ( 'NONE', #1111 ) ;
#134 = ADVANCED_FACE ( 'NONE', ( #269 ), #1167, .T. ) ;
#135 = ORIENTED_EDGE ( 'NONE', *, *, #352, .T. ) ;
#136 = AXIS2_PLACEMENT_3D ( 'NONE', #369, #1053, #553 ) ;
#137 = ORIENTED_EDGE ( 'NONE', *, *, #241, .T. ) ;
#138 = DIRECTION ( 'NONE',  ( -0.0000000000000000000, -1.000000000000000000, -0.0000000000000000000 ) ) ;
#139 = PLANE ( 'NONE',  #270 ) ;
#140 = DIRECTION ( 'NONE',  ( 0.0000000000000000000, 0.0000000000000000000, 1.000000000000000000 ) ) ;
#141 = AXIS2_PLACEMENT_3D ( 'NONE', #634, #624, #49 ) ;
#142 = CARTESIAN_POINT ( 'NONE',  ( -0.3999999999999997446, 0.5300000000000000266, 0.7800000000000002487 ) ) ;
#143 = ADVANCED_FACE ( 'NONE', ( #461 ), #318, .F. ) ;
#144 = CARTESIAN_POINT ( 'NONE',  ( 500000.0000000000582, 0.006666666666666666227, 0.7799999999566322728 ) ) ;
#145 = DIRECTION ( 'NONE',  ( -1.000000000000000000, 0.0000000000000000000, 0.0000000000000000000 ) ) ;
#146 = CARTESIAN_POINT ( 'NONE',  ( -0.3999999999999997446, 0.02000000000000005246, 0.7800000000000002487 ) ) ;
#147 = FACE_OUTER_BOUND ( 'NONE', #198, .T. ) ;
#148 = EDGE_CURVE ( 'NONE', #1173, #453, #559, .T. ) ;
#149 = APPLICATION_CONTEXT ( 'automotive_design' ) ;
#150 = CYLINDRICAL_SURFACE ( 'NONE', #229, 0.01333333333333340531 ) ;
#151 = CARTESIAN_POINT ( 'NONE',  ( 0.1500000000191903382, 0.5433333333333333348, -0.7799999999999999156 ) ) ;
#152 = LINE ( 'NONE', #235, #1274 ) ;
#153 = EDGE_CURVE ( 'NONE', #387, #619, #783, .T. ) ;
#154 = DIRECTION ( 'NONE',  ( 0.0000000000000000000, 0.0000000000000000000, 1.000000000000000000 ) ) ;
#155 = ORIENTED_EDGE ( 'NONE', *, *, #546, .T. ) ;
#156 = VERTEX_POINT ( 'NONE', #441 ) ;
#157 = CARTESIAN_POINT ( 'NONE',  ( -0.3799999999999998934, 0.0000000000000000000, 6.437450399132678879E-17 ) ) ;
#158 = CARTESIAN_POINT ( 'NONE',  ( -0.4000000000000000222, 0.5500000000000000444, -0.7799999999999999156 ) ) ;
#159 = CARTESIAN_POINT ( 'NONE',  ( -0.4000000000000000222, 0.5300000000000000266, -0.7799999999999999156 ) ) ;
#160 = ORIENTED_EDGE ( 'NONE', *, *, #1191, .F. ) ;
#161 = EDGE_CURVE ( 'NONE', #1067, #578, #325, .T. ) ;
#162 = AXIS2_PLACEMENT_3D ( 'NONE', #919, #1125, #899 ) ;
#163 = DIRECTION ( 'NONE',  ( -1.000000000000000000, -0.0000000000000000000, 2.710505431213754380E-15 ) ) ;
#164 = EDGE_CURVE ( 'NONE', #1002, #452, #1227, .T. ) ;
#165 = FACE_OUTER_BOUND ( 'NONE', #705, .T. ) ;
#166 = DIRECTION ( 'NONE',  ( 0.0000000000000000000, 0.0000000000000000000, 1.000000000000000000 ) ) ;
#167 = AXIS2_PLACEMENT_3D ( 'NONE', #730, #345, #943 ) ;
#168 = LINE ( 'NONE', #1184, #322 ) ;
#169 = LINE ( 'NONE', #413, #1180 ) ;
#170 = VECTOR ( 'NONE', #830, 1000.000000000000000 ) ;
#171 = AXIS2_PLACEMENT_3D ( 'NONE', #1023, #615, #1136 ) ;
#172 = CARTESIAN_POINT ( 'NONE',  ( 0.1500000000191903382, 0.5433333333333333348, -0.7800000001111305759 ) ) ;
#173 = ORIENTED_EDGE ( 'NONE', *, *, #831, .F. ) ;
#174 = EDGE_LOOP ( 'NONE', ( #275, #897, #1246 ) ) ;
#175 = ORIENTED_EDGE ( 'NONE', *, *, #1233, .F. ) ;
#176 = CARTESIAN_POINT ( 'NONE',  ( -0.4000000000000000222, 0.02000000000000005246, -0.7999999999999999334 ) ) ;
#177 = CIRCLE ( 'NONE', #136, 0.02000000000000005246 ) ;
#178 = DIRECTION ( 'NONE',  ( 1.000000000000000000, 0.0000000000000000000, 0.0000000000000000000 ) ) ;
#179 = CIRCLE ( 'NONE', #1069, 0.02000000000000005246 ) ;
#180 = EDGE_CURVE ( 'NONE', #510, #621, #964, .T. ) ;
#181 =( LENGTH_UNIT ( ) NAMED_UNIT ( * ) SI_UNIT ( .MILLI., .METRE. ) );
#182 = PRODUCT_RELATED_PRODUCT_CATEGORY ( 'part', '', ( #339 ) ) ;
#183 = SURFACE_STYLE_FILL_AREA ( #758 ) ;
#184 = SPHERICAL_SURFACE ( 'NONE', #434, 0.02000000000000000042 ) ;
#185 = VERTEX_POINT ( 'NONE', #1040 ) ;
#186 = AXIS2_PLACEMENT_3D ( 'NONE', #74, #760, #691 ) ;
#187 = DIRECTION ( 'NONE',  ( 0.0000000000000000000, 1.000000000000000000, 0.0000000000000000000 ) ) ;
#188 = ORIENTED_EDGE ( 'NONE', *, *, #894, .T. ) ;
#189 = ORIENTED_EDGE ( 'NONE', *, *, #677, .T. ) ;
#190 = CARTESIAN_POINT ( 'NONE',  ( 0.3799999999999997269, 0.02000000000000005246, 0.7800000000000002487 ) ) ;
#191 =( GEOMETRIC_REPRESENTATION_CONTEXT ( 3 ) GLOBAL_UNCERTAINTY_ASSIGNED_CONTEXT ( ( #1278 ) ) GLOBAL_UNIT_ASSIGNED_CONTEXT ( ( #972, #572, #1277 ) ) REPRESENTATION_CONTEXT ( 'NONE', 'WORKASPACE' ) );
#192 = DIRECTION ( 'NONE',  ( 0.0000000000000000000, -0.0000000000000000000, -1.000000000000000000 ) ) ;
#193 = LINE ( 'NONE', #1230, #1256 ) ;
#194 = LINE ( 'NONE', #1046, #1271 ) ;
#195 = DIRECTION ( 'NONE',  ( 0.0000000000000000000, 1.000000000000000000, 0.0000000000000000000 ) ) ;
#196 = FACE_OUTER_BOUND ( 'NONE', #729, .T. ) ;
#197 = VERTEX_POINT ( 'NONE', #151 ) ;
#198 = EDGE_LOOP ( 'NONE', ( #528, #188, #870, #483 ) ) ;
#199 = VERTEX_POINT ( 'NONE', #725 ) ;
#200 = CARTESIAN_POINT ( 'NONE',  ( -0.3800000000000000044, 0.02000000000000005246, -0.7999999999999999334 ) ) ;
#201 = AXIS2_PLACEMENT_3D ( 'NONE', #925, #350, #932 ) ;
#202 = AXIS2_PLACEMENT_3D ( 'NONE', #28, #117, #501 ) ;
#203 = CYLINDRICAL_SURFACE ( 'NONE', #720, 0.02000000000000005246 ) ;
#204 = LINE ( 'NONE', #228, #323 ) ;
#205 = ORIENTED_EDGE ( 'NONE', *, *, #1166, .F. ) ;
#206 = ORIENTED_EDGE ( 'NONE', *, *, #740, .T. ) ;
#207 = AXIS2_PLACEMENT_3D ( 'NONE', #331, #1019, #415 ) ;
#208 = CARTESIAN_POINT ( 'NONE',  ( 0.4000000000000000222, 0.02000000000000005246, -0.7799999999999999156 ) ) ;
#209 = EDGE_LOOP ( 'NONE', ( #449, #1148, #1025, #1214 ) ) ;
#210 = VERTEX_POINT ( 'NONE', #159 ) ;
#211 = DIRECTION ( 'NONE',  ( 0.0000000000000000000, -1.000000000000000000, 0.0000000000000000000 ) ) ;
#212 = EDGE_CURVE ( 'NONE', #274, #1235, #1122, .T. ) ;
#213 = ADVANCED_FACE ( 'NONE', ( #1089 ), #150, .T. ) ;
#214 = CARTESIAN_POINT ( 'NONE',  ( 0.3799999999999997269, 0.5500000000000000444, 0.7800000000000002487 ) ) ;
#215 = CARTESIAN_POINT ( 'NONE',  ( 0.4000000000000000222, 0.02000000000000005246, -0.7799999999999999156 ) ) ;
#216 = DIRECTION ( 'NONE',  ( 1.000000000000000000, 0.0000000000000000000, 0.0000000000000000000 ) ) ;
#217 = FACE_OUTER_BOUND ( 'NONE', #981, .T. ) ;
#218 = EDGE_CURVE ( 'NONE', #348, #1174, #929, .T. ) ;
#219 = VECTOR ( 'NONE', #145, 1000.000000000000000 ) ;
#220 = ORIENTED_EDGE ( 'NONE', *, *, #401, .T. ) ;
#221 = ORIENTED_EDGE ( 'NONE', *, *, #677, .F. ) ;
#222 = AXIS2_PLACEMENT_3D ( 'NONE', #122, #1010, #622 ) ;
#223 = DIRECTION ( 'NONE',  ( 0.0000000000000000000, 0.0000000000000000000, 1.000000000000000000 ) ) ;
#224 = EDGE_LOOP ( 'NONE', ( #842, #480, #248, #855 ) ) ;
#225 = CARTESIAN_POINT ( 'NONE',  ( -0.1499999999999997446, 0.5500000000000000444, 0.8000000000000002665 ) ) ;
#226 = ORIENTED_EDGE ( 'NONE', *, *, #876, .F. ) ;
#227 = DIRECTION ( 'NONE',  ( -1.000000000000000000, 0.0000000000000000000, 0.0000000000000000000 ) ) ;
#228 = CARTESIAN_POINT ( 'NONE',  ( 500000.0000000000582, 0.5299999999999998046, -0.7933333333767014217 ) ) ;
#229 = AXIS2_PLACEMENT_3D ( 'NONE', #1029, #233, #432 ) ;
#230 = CARTESIAN_POINT ( 'NONE',  ( 0.1499999999999999667, 0.0000000000000000000, -0.7799999999999999156 ) ) ;
#231 = ADVANCED_FACE ( 'NONE', ( #754 ), #414, .T. ) ;
#232 = CARTESIAN_POINT ( 'NONE',  ( 0.1500000000191903382, 0.5299999999999998046, -0.7933333333333333348 ) ) ;
#233 = DIRECTION ( 'NONE',  ( -1.000000000000000000, -0.0000000000000000000, 8.673617379884036705E-17 ) ) ;
#234 = DIRECTION ( 'NONE',  ( 0.0000000000000000000, 0.0000000000000000000, 1.000000000000000000 ) ) ;
#235 = CARTESIAN_POINT ( 'NONE',  ( 500000.0000000000582, 0.006666666666666658421, 0.7799999999566322728 ) ) ;
#236 = CIRCLE ( 'NONE', #554, 0.01999999999999999695 ) ;
#237 = DIRECTION ( 'NONE',  ( 0.0000000000000000000, 0.0000000000000000000, 1.000000000000000000 ) ) ;
#238 = ADVANCED_FACE ( 'NONE', ( #47 ), #892, .T. ) ;
#239 = DIRECTION ( 'NONE',  ( -6.950013926189131872E-17, 0.0000000000000000000, -1.000000000000000000 ) ) ;
#240 = FACE_OUTER_BOUND ( 'NONE', #312, .T. ) ;
#241 = EDGE_CURVE ( 'NONE', #351, #98, #1182, .T. ) ;
#242 = ORIENTED_EDGE ( 'NONE', *, *, #1161, .F. ) ;
#243 = DIRECTION ( 'NONE',  ( 2.710505431213753985E-15, 0.0000000000000000000, 1.000000000000000000 ) ) ;
#244 = EDGE_LOOP ( 'NONE', ( #1110, #564, #99, #579 ) ) ;
#245 = EDGE_CURVE ( 'NONE', #654, #967, #386, .T. ) ;
#246 = ORIENTED_EDGE ( 'NONE', *, *, #456, .T. ) ;
#247 = ADVANCED_FACE ( 'NONE', ( #684 ), #1105, .T. ) ;
#248 = ORIENTED_EDGE ( 'NONE', *, *, #180, .T. ) ;
#249 = CARTESIAN_POINT ( 'NONE',  ( -0.3799999999999997269, 0.0000000000000000000, 0.7800000000000002487 ) ) ;
#250 = CARTESIAN_POINT ( 'NONE',  ( -0.1499999999999998002, 0.006666666666666666227, 0.7800000000000003597 ) ) ;
#251 = AXIS2_PLACEMENT_3D ( 'NONE', #1071, #101, #1085 ) ;
#252 = UNCERTAINTY_MEASURE_WITH_UNIT (LENGTH_MEASURE( 1.000000000000000082E-05 ), #737, 'distance_accuracy_value', 'NONE');
#253 = DIRECTION ( 'NONE',  ( 1.000000000000000000, -0.0000000000000000000, 0.0000000000000000000 ) ) ;
#254 = FACE_OUTER_BOUND ( 'NONE', #799, .T. ) ;
#255 = CIRCLE ( 'NONE', #1238, 0.02000000000000005246 ) ;
#256 = AXIS2_PLACEMENT_3D ( 'NONE', #1009, #539, #827 ) ;
#257 = CARTESIAN_POINT ( 'NONE',  ( 0.4000000000000000222, 0.5500000000000000444, -0.7799999999999999156 ) ) ;
#258 = CARTESIAN_POINT ( 'NONE',  ( -0.1499999999999999667, 0.5300000000000000266, -0.7799999999999999156 ) ) ;
#259 = ORIENTED_EDGE ( 'NONE', *, *, #1058, .F. ) ;
#260 = EDGE_LOOP ( 'NONE', ( #403, #13, #242, #400, #845, #1154, #1008, #221 ) ) ;
#261 = VERTEX_POINT ( 'NONE', #535 ) ;
#262 = DIRECTION ( 'NONE',  ( 1.000000000000000000, 0.0000000000000000000, 1.355252715606880296E-16 ) ) ;
#263 = ORIENTED_EDGE ( 'NONE', *, *, #549, .F. ) ;
#264 = DIRECTION ( 'NONE',  ( -1.355252715606880296E-16, 0.0000000000000000000, 1.000000000000000000 ) ) ;
#265 = PRODUCT_DEFINITION_CONTEXT ( 'detailed design', #364, 'design' ) ;
#266 = AXIS2_PLACEMENT_3D ( 'NONE', #1021, #521, #912 ) ;
#267 = VECTOR ( 'NONE', #1231, 1000.000000000000000 ) ;
#268 = CIRCLE ( 'NONE', #291, 0.02000000000000005246 ) ;
#269 = FACE_OUTER_BOUND ( 'NONE', #108, .T. ) ;
#270 = AXIS2_PLACEMENT_3D ( 'NONE', #810, #700, #405 ) ;
#271 = CARTESIAN_POINT ( 'NONE',  ( -0.3800000000000000044, 0.02000000000000005246, -0.7799999999999999156 ) ) ;
#272 = ORIENTED_EDGE ( 'NONE', *, *, #16, .T. ) ;
#273 = VERTEX_POINT ( 'NONE', #920 ) ;
#274 = VERTEX_POINT ( 'NONE', #333 ) ;
#275 = ORIENTED_EDGE ( 'NONE', *, *, #740, .F. ) ;
#276 = DIRECTION ( 'NONE',  ( 0.0000000000000000000, 1.000000000000000000, 0.0000000000000000000 ) ) ;
#277 = EDGE_CURVE ( 'NONE', #591, #1002, #880, .T. ) ;
#278 = FACE_OUTER_BOUND ( 'NONE', #260, .T. ) ;
#279 = SURFACE_STYLE_FILL_AREA ( #1070 ) ;
#280 = AXIS2_PLACEMENT_3D ( 'NONE', #1220, #46, #795 ) ;
#281 = DIRECTION ( 'NONE',  ( 1.000000000000000000, 0.0000000000000000000, 1.355252715606880296E-16 ) ) ;
#282 = CIRCLE ( 'NONE', #1115, 0.02000000000000005246 ) ;
#283 = FACE_OUTER_BOUND ( 'NONE', #51, .T. ) ;
#284 = ORIENTED_EDGE ( 'NONE', *, *, #469, .F. ) ;
#285 = EDGE_CURVE ( 'NONE', #654, #1129, #817, .T. ) ;
#286 = CARTESIAN_POINT ( 'NONE',  ( 500000.0000000000582, 0.5433333333333333348, -0.7800000000433680025 ) ) ;
#287 = EDGE_LOOP ( 'NONE', ( #335, #1109, #12, #1276 ) ) ;
#288 = ORIENTED_EDGE ( 'NONE', *, *, #996, .F. ) ;
#289 = AXIS2_PLACEMENT_3D ( 'NONE', #848, #1004, #1000 ) ;
#290 = DIRECTION ( 'NONE',  ( 0.0000000000000000000, -1.000000000000000000, 0.0000000000000000000 ) ) ;
#291 = AXIS2_PLACEMENT_3D ( 'NONE', #1176, #290, #980 ) ;
#292 = DIRECTION ( 'NONE',  ( -1.000000000000000000, 0.0000000000000000000, 0.0000000000000000000 ) ) ;
#293 = VECTOR ( 'NONE', #1134, 1000.000000000000000 ) ;
#294 = LINE ( 'NONE', #1253, #904 ) ;
#295 = ORIENTED_EDGE ( 'NONE', *, *, #1237, .T. ) ;
#296 = ORIENTED_EDGE ( 'NONE', *, *, #346, .F. ) ;
#297 = EDGE_CURVE ( 'NONE', #185, #274, #612, .T. ) ;
#298 = ORIENTED_EDGE ( 'NONE', *, *, #744, .F. ) ;
#299 = EDGE_LOOP ( 'NONE', ( #563, #550, #1044, #1202 ) ) ;
#300 = EDGE_CURVE ( 'NONE', #367, #185, #431, .T. ) ;
#301 = CIRCLE ( 'NONE', #162, 0.02000000000000005246 ) ;
#302 = FACE_OUTER_BOUND ( 'NONE', #174, .T. ) ;
#303 = DIRECTION ( 'NONE',  ( 1.000000000000000000, 0.0000000000000000000, -8.673617379884036705E-17 ) ) ;
#304 = VECTOR ( 'NONE', #466, 1000.000000000000000 ) ;
#305 = ORIENTED_EDGE ( 'NONE', *, *, #300, .T. ) ;
#306 = DIRECTION ( 'NONE',  ( -1.000000000000000000, -0.0000000000000000000, -0.0000000000000000000 ) ) ;
#307 = CARTESIAN_POINT ( 'NONE',  ( 0.3800000000000000600, 0.5500000000000000444, -0.7799999999999999156 ) ) ;
#308 = ORIENTED_EDGE ( 'NONE', *, *, #566, .F. ) ;
#309 = DIRECTION ( 'NONE',  ( -1.000000000000000000, -0.0000000000000000000, 8.673617379884036705E-17 ) ) ;
#310 = MANIFOLD_SOLID_BREP ( 'Boss-Extrude2', #497 ) ;
#311 = DIRECTION ( 'NONE',  ( 0.0000000000000000000, 0.0000000000000000000, 1.000000000000000000 ) ) ;
#312 = EDGE_LOOP ( 'NONE', ( #689, #155, #205, #433 ) ) ;
#313 = AXIS2_PLACEMENT_3D ( 'NONE', #33, #568, #1263 ) ;
#314 = ORIENTED_EDGE ( 'NONE', *, *, #605, .T. ) ;
#315 = DIRECTION ( 'NONE',  ( -0.0000000000000000000, -1.000000000000000000, -0.0000000000000000000 ) ) ;
#316 = PLANE ( 'NONE',  #266 ) ;
#317 = DIRECTION ( 'NONE',  ( -1.694065894508600185E-16, -0.0000000000000000000, -1.000000000000000000 ) ) ;
#318 = PLANE ( 'NONE',  #256 ) ;
#319 = DIRECTION ( 'NONE',  ( -1.000000000000000000, 0.0000000000000000000, -0.0000000000000000000 ) ) ;
#320 = DIRECTION ( 'NONE',  ( 1.000000000000000000, 0.0000000000000000000, 1.355252715606880296E-16 ) ) ;
#321 = PLANE ( 'NONE',  #529 ) ;
#322 = VECTOR ( 'NONE', #106, 1000.000000000000000 ) ;
#323 = VECTOR ( 'NONE', #908, 1000.000000000000000 ) ;
#324 = DIRECTION ( 'NONE',  ( -1.000000000000000000, -0.0000000000000000000, 8.673617379884036705E-17 ) ) ;
#325 = CIRCLE ( 'NONE', #334, 0.02000000000000005246 ) ;
#326 = DIRECTION ( 'NONE',  ( 0.0000000000000000000, 0.0000000000000000000, 1.000000000000000000 ) ) ;
#327 = CARTESIAN_POINT ( 'NONE',  ( 0.1500000000191903382, 0.02000000000000005246, -0.7933333333333333348 ) ) ;
#328 = ORIENTED_EDGE ( 'NONE', *, *, #180, .F. ) ;
#329 = ADVANCED_FACE ( 'NONE', ( #361 ), #950, .T. ) ;
#330 = ORIENTED_EDGE ( 'NONE', *, *, #695, .F. ) ;
#331 = CARTESIAN_POINT ( 'NONE',  ( 0.0000000000000000000, 0.5500000000000000444, 0.0000000000000000000 ) ) ;
#332 = ORIENTED_EDGE ( 'NONE', *, *, #670, .F. ) ;
#333 = CARTESIAN_POINT ( 'NONE',  ( -0.1499999999999998002, 0.006666666666666658421, 0.7800000000000003597 ) ) ;
#334 = AXIS2_PLACEMENT_3D ( 'NONE', #719, #1147, #713 ) ;
#335 = ORIENTED_EDGE ( 'NONE', *, *, #876, .T. ) ;
#336 = CARTESIAN_POINT ( 'NONE',  ( 0.3800000000000000044, 0.02000000000000005246, -0.7999999999999999334 ) ) ;
#337 = CARTESIAN_POINT ( 'NONE',  ( 500000.0000000000582, 0.02000000000000005246, -0.7933333333767014217 ) ) ;
#338 = ADVANCED_FACE ( 'NONE', ( #1020 ), #877, .F. ) ;
#339 = PRODUCT ( 'AWK107BJ106MV-T', 'AWK107BJ106MV-T', '', ( #555 ) ) ;
#340 = CARTESIAN_POINT ( 'NONE',  ( 0.3800000000000000044, 0.02000000000000005246, -0.7799999999999999156 ) ) ;
#341 = CARTESIAN_POINT ( 'NONE',  ( -0.3800000000000000044, 0.0000000000000000000, -0.7799999999999999156 ) ) ;
#342 = EDGE_CURVE ( 'NONE', #1067, #378, #588, .T. ) ;
#343 = FACE_OUTER_BOUND ( 'NONE', #420, .T. ) ;
#344 = CARTESIAN_POINT ( 'NONE',  ( 0.0000000000000000000, 0.5500000000000000444, 0.0000000000000000000 ) ) ;
#345 = DIRECTION ( 'NONE',  ( -1.000000000000000000, 0.0000000000000000000, 0.0000000000000000000 ) ) ;
#346 = EDGE_CURVE ( 'NONE', #98, #197, #866, .T. ) ;
#347 = VECTOR ( 'NONE', #384, 1000.000000000000000 ) ;
#348 = VERTEX_POINT ( 'NONE', #975 ) ;
#349 = DIRECTION ( 'NONE',  ( 0.0000000000000000000, 0.0000000000000000000, -1.000000000000000000 ) ) ;
#350 = DIRECTION ( 'NONE',  ( 1.000000000000000000, 0.0000000000000000000, 1.355252715606880296E-16 ) ) ;
#351 = VERTEX_POINT ( 'NONE', #479 ) ;
#352 = EDGE_CURVE ( 'NONE', #1095, #491, #105, .T. ) ;
#353 = EDGE_LOOP ( 'NONE', ( #328, #773, #1145 ) ) ;
#354 = ORIENTED_EDGE ( 'NONE', *, *, #1, .T. ) ;
#355 = DIRECTION ( 'NONE',  ( 0.0000000000000000000, 0.0000000000000000000, 1.000000000000000000 ) ) ;
#356 = EDGE_CURVE ( 'NONE', #619, #261, #82, .T. ) ;
#357 = DIRECTION ( 'NONE',  ( 1.000000000000000000, -0.0000000000000000000, -1.355252715606880296E-16 ) ) ;
#358 = ADVANCED_FACE ( 'NONE', ( #196 ), #490, .T. ) ;
#359 = AXIS2_PLACEMENT_3D ( 'NONE', #674, #565, #473 ) ;
#360 = FACE_OUTER_BOUND ( 'NONE', #952, .T. ) ;
#361 = FACE_OUTER_BOUND ( 'NONE', #299, .T. ) ;
#362 = ORIENTED_EDGE ( 'NONE', *, *, #546, .F. ) ;
#363 = ORIENTED_EDGE ( 'NONE', *, *, #714, .F. ) ;
#364 = APPLICATION_CONTEXT ( 'automotive_design' ) ;
#365 = CARTESIAN_POINT ( 'NONE',  ( 0.4000000000000000222, 0.5300000000000000266, -0.7999999999999999334 ) ) ;
#366 = ORIENTED_EDGE ( 'NONE', *, *, #245, .T. ) ;
#367 = VERTEX_POINT ( 'NONE', #678 ) ;
#368 =( NAMED_UNIT ( * ) SI_UNIT ( $, .STERADIAN. ) SOLID_ANGLE_UNIT ( ) );
#369 = CARTESIAN_POINT ( 'NONE',  ( -0.3799999999999997269, 0.02000000000000000042, 0.7800000000000002487 ) ) ;
#370 = EDGE_CURVE ( 'NONE', #591, #199, #268, .T. ) ;
#371 = CARTESIAN_POINT ( 'NONE',  ( -0.1499999999999997724, 0.5300000000000000266, 0.7933333333333335569 ) ) ;
#372 = EDGE_CURVE ( 'NONE', #367, #1185, #741, .T. ) ;
#373 = CARTESIAN_POINT ( 'NONE',  ( -0.1499999999999998002, 0.02000000000000005246, 0.7800000000000002487 ) ) ;
#374 = AXIS2_PLACEMENT_3D ( 'NONE', #655, #959, #953 ) ;
#375 = LINE ( 'NONE', #538, #781 ) ;
#376 = DIRECTION ( 'NONE',  ( -0.0000000000000000000, -0.0000000000000000000, 1.000000000000000000 ) ) ;
#377 =( NAMED_UNIT ( * ) PLANE_ANGLE_UNIT ( ) SI_UNIT ( $, .RADIAN. ) );
#378 = VERTEX_POINT ( 'NONE', #961 ) ;
#379 = ORIENTED_EDGE ( 'NONE', *, *, #763, .F. ) ;
#380 = EDGE_LOOP ( 'NONE', ( #1186, #437, #819, #1262 ) ) ;
#381 = UNCERTAINTY_MEASURE_WITH_UNIT (LENGTH_MEASURE( 1.000000000000000082E-05 ), #675, 'distance_accuracy_value', 'NONE');
#382 = VERTEX_POINT ( 'NONE', #462 ) ;
#383 = CARTESIAN_POINT ( 'NONE',  ( -0.4000000000000000222, 0.5500000000000000444, -0.7999999999999999334 ) ) ;
#384 = DIRECTION ( 'NONE',  ( -1.355252715606880296E-16, -0.0000000000000000000, -1.000000000000000000 ) ) ;
#385 = DIRECTION ( 'NONE',  ( -0.0000000000000000000, 1.000000000000000000, -0.0000000000000000000 ) ) ;
#386 = CIRCLE ( 'NONE', #141, 0.02000000000000005246 ) ;
#387 = VERTEX_POINT ( 'NONE', #574 ) ;
#388 = CARTESIAN_POINT ( 'NONE',  ( -0.1499999999999998002, 0.5433333333333333348, 0.7799999999999999156 ) ) ;
#389 = ORIENTED_EDGE ( 'NONE', *, *, #372, .F. ) ;
#390 = ORIENTED_EDGE ( 'NONE', *, *, #1065, .F. ) ;
#391 = CARTESIAN_POINT ( 'NONE',  ( -0.1499999999999999112, 0.5433333333333333348, -0.7799999999999999156 ) ) ;
#392 = MANIFOLD_SOLID_BREP ( 'Fillet1', #107 ) ;
#393 = AXIS2_PLACEMENT_3D ( 'NONE', #514, #34, #131 ) ;
#394 = MECHANICAL_DESIGN_GEOMETRIC_PRESENTATION_REPRESENTATION (  '', ( #661 ), #1091 ) ;
#395 = DIRECTION ( 'NONE',  ( 0.0000000000000000000, 1.000000000000000000, -0.0000000000000000000 ) ) ;
#396 = FACE_OUTER_BOUND ( 'NONE', #380, .T. ) ;
#397 = CIRCLE ( 'NONE', #1245, 0.02000000000000005246 ) ;
#398 = EDGE_CURVE ( 'NONE', #666, #513, #294, .T. ) ;
#399 = VECTOR ( 'NONE', #512, 1000.000000000000000 ) ;
#400 = ORIENTED_EDGE ( 'NONE', *, *, #212, .F. ) ;
#401 = EDGE_CURVE ( 'NONE', #442, #591, #476, .T. ) ;
#402 = ORIENTED_EDGE ( 'NONE', *, *, #17, .F. ) ;
#403 = ORIENTED_EDGE ( 'NONE', *, *, #96, .F. ) ;
#404 = AXIS2_PLACEMENT_3D ( 'NONE', #190, #1275, #487 ) ;
#405 = DIRECTION ( 'NONE',  ( -1.694065894508600185E-16, 0.0000000000000000000, -1.000000000000000000 ) ) ;
#406 = ADVANCED_FACE ( 'NONE', ( #752 ), #862, .F. ) ;
#407 = EDGE_CURVE ( 'NONE', #774, #453, #489, .T. ) ;
#408 = LINE ( 'NONE', #1119, #923 ) ;
#409 = CYLINDRICAL_SURFACE ( 'NONE', #660, 0.01333333333333340531 ) ;
#410 = CARTESIAN_POINT ( 'NONE',  ( -0.3799999999999997269, 0.02000000000000005246, 0.7800000000000002487 ) ) ;
#411 = LINE ( 'NONE', #1149, #650 ) ;
#412 = AXIS2_PLACEMENT_3D ( 'NONE', #72, #1146, #1140 ) ;
#413 = CARTESIAN_POINT ( 'NONE',  ( 500000.0000000000582, 0.006666666666666666227, -0.7800000000433675584 ) ) ;
#414 = SPHERICAL_SURFACE ( 'NONE', #926, 0.02000000000000000042 ) ;
#415 = DIRECTION ( 'NONE',  ( 0.0000000000000000000, 0.0000000000000000000, 1.000000000000000000 ) ) ;
#416 = ORIENTED_EDGE ( 'NONE', *, *, #888, .F. ) ;
#417 = CARTESIAN_POINT ( 'NONE',  ( 0.3999999999999997446, 0.02000000000000005246, 0.8000000000000002665 ) ) ;
#418 = VERTEX_POINT ( 'NONE', #1188 ) ;
#419 = AXIS2_PLACEMENT_3D ( 'NONE', #587, #2, #983 ) ;
#420 = EDGE_LOOP ( 'NONE', ( #910, #496, #1006, #856, #50, #685, #295, #137 ) ) ;
#421 = CARTESIAN_POINT ( 'NONE',  ( 500000.0000000000582, 0.5300000000000000266, -0.7800000000433680025 ) ) ;
#422 = CARTESIAN_POINT ( 'NONE',  ( 0.3799999999999997269, 0.02000000000000000042, 0.7800000000000002487 ) ) ;
#423 = CARTESIAN_POINT ( 'NONE',  ( 0.3799999999999998934, 0.5300000000000000266, 6.437450399132678879E-17 ) ) ;
#424 = DIRECTION ( 'NONE',  ( 1.694065894508600185E-16, 0.0000000000000000000, -1.000000000000000000 ) ) ;
#425 = CARTESIAN_POINT ( 'NONE',  ( -0.4000000000000000222, 0.5500000000000000444, -0.7799999999999999156 ) ) ;
#426 = EDGE_CURVE ( 'NONE', #576, #967, #782, .T. ) ;
#427 = LINE ( 'NONE', #425, #1138 ) ;
#428 = ADVANCED_FACE ( 'NONE', ( #240 ), #1197, .F. ) ;
#429 = CYLINDRICAL_SURFACE ( 'NONE', #458, 0.01999999999999999695 ) ;
#430 =( NAMED_UNIT ( * ) PLANE_ANGLE_UNIT ( ) SI_UNIT ( $, .RADIAN. ) );
#431 = LINE ( 'NONE', #667, #573 ) ;
#432 = DIRECTION ( 'NONE',  ( 0.0000000000000000000, 0.0000000000000000000, 1.000000000000000000 ) ) ;
#433 = ORIENTED_EDGE ( 'NONE', *, *, #1074, .T. ) ;
#434 = AXIS2_PLACEMENT_3D ( 'NONE', #506, #126, #802 ) ;
#435 = DIRECTION ( 'NONE',  ( -1.000000000000000000, 0.0000000000000000000, 0.0000000000000000000 ) ) ;
#436 = ORIENTED_EDGE ( 'NONE', *, *, #971, .T. ) ;
#437 = ORIENTED_EDGE ( 'NONE', *, *, #148, .T. ) ;
#438 = DIRECTION ( 'NONE',  ( 1.000000000000000000, 0.0000000000000000000, 0.0000000000000000000 ) ) ;
#439 = CARTESIAN_POINT ( 'NONE',  ( -0.1499999999999999667, 0.0000000000000000000, -0.7799999999999999156 ) ) ;
#440 = ADVANCED_FACE ( 'NONE', ( #1056 ), #459, .T. ) ;
#441 = CARTESIAN_POINT ( 'NONE',  ( 0.3799999999999997269, 0.02000000000000005246, 0.8000000000000002665 ) ) ;
#442 = VERTEX_POINT ( 'NONE', #602 ) ;
#443 = CARTESIAN_POINT ( 'NONE',  ( -0.1499999999999999667, 0.5300000000000000266, -0.7999999999999999334 ) ) ;
#444 = DIRECTION ( 'NONE',  ( 1.000000000000000000, -0.0000000000000000000, -0.0000000000000000000 ) ) ;
#445 = VECTOR ( 'NONE', #264, 1000.000000000000000 ) ;
#446 = DIRECTION ( 'NONE',  ( 0.0000000000000000000, -1.000000000000000000, 0.0000000000000000000 ) ) ;
#447 = CARTESIAN_POINT ( 'NONE',  ( 0.3999999999999997446, 0.5500000000000000444, 0.7800000000000003597 ) ) ;
#448 = FACE_OUTER_BOUND ( 'NONE', #694, .T. ) ;
#449 = ORIENTED_EDGE ( 'NONE', *, *, #241, .F. ) ;
#450 = DIRECTION ( 'NONE',  ( -1.000000000000000000, 0.0000000000000000000, 0.0000000000000000000 ) ) ;
#451 = ADVANCED_FACE ( 'NONE', ( #448 ), #524, .T. ) ;
#452 = VERTEX_POINT ( 'NONE', #495 ) ;
#453 = VERTEX_POINT ( 'NONE', #128 ) ;
#454 = ORIENTED_EDGE ( 'NONE', *, *, #1191, .T. ) ;
#455 = DIRECTION ( 'NONE',  ( -1.000000000000000000, 0.0000000000000000000, 0.0000000000000000000 ) ) ;
#456 = EDGE_CURVE ( 'NONE', #98, #418, #204, .T. ) ;
#457 = FACE_OUTER_BOUND ( 'NONE', #530, .T. ) ;
#458 = AXIS2_PLACEMENT_3D ( 'NONE', #1014, #1126, #1221 ) ;
#459 = CYLINDRICAL_SURFACE ( 'NONE', #509, 0.01333333333333340531 ) ;
#460 = CARTESIAN_POINT ( 'NONE',  ( -0.4000000000000000222, 0.02000000000000005246, -0.7799999999999999156 ) ) ;
#461 = FACE_OUTER_BOUND ( 'NONE', #776, .T. ) ;
#462 = CARTESIAN_POINT ( 'NONE',  ( 0.3800000000000000044, 0.0000000000000000000, -0.7799999999999999156 ) ) ;
#463 = EDGE_LOOP ( 'NONE', ( #332, #362, #954, #1063 ) ) ;
#464 = ORIENTED_EDGE ( 'NONE', *, *, #828, .T. ) ;
#465 = DIRECTION ( 'NONE',  ( 0.0000000000000000000, -1.000000000000000000, 0.0000000000000000000 ) ) ;
#466 = DIRECTION ( 'NONE',  ( 1.355252715606880296E-16, -0.0000000000000000000, -1.000000000000000000 ) ) ;
#467 = ORIENTED_EDGE ( 'NONE', *, *, #791, .F. ) ;
#468 = CLOSED_SHELL ( 'NONE', ( #35, #614, #1031, #406, #68, #627, #329, #129, #556, #800, #1013, #1254, #247, #941, #504, #718, #231, #80 ) ) ;
#469 = EDGE_CURVE ( 'NONE', #560, #442, #723, .T. ) ;
#470 = ADVANCED_BREP_SHAPE_REPRESENTATION ( 'AWK107BJ106MV-T', ( #392, #768, #310, #748 ), #1104 ) ;
#471 = PLANE ( 'NONE',  #616 ) ;
#472 = EDGE_CURVE ( 'NONE', #1077, #387, #947, .T. ) ;
#473 = DIRECTION ( 'NONE',  ( 1.000000000000000000, 0.0000000000000000000, 0.0000000000000000000 ) ) ;
#474 = CIRCLE ( 'NONE', #987, 0.02000000000000005246 ) ;
#475 = LINE ( 'NONE', #984, #878 ) ;
#476 = LINE ( 'NONE', #562, #963 ) ;
#477 = EDGE_CURVE ( 'NONE', #1129, #820, #611, .T. ) ;
#478 = ORIENTED_EDGE ( 'NONE', *, *, #472, .T. ) ;
#479 = CARTESIAN_POINT ( 'NONE',  ( 0.1500000000191903382, 0.02000000000000005246, -0.7933333333333333348 ) ) ;
#480 = ORIENTED_EDGE ( 'NONE', *, *, #868, .T. ) ;
#481 = EDGE_LOOP ( 'NONE', ( #895, #698, #1169, #416 ) ) ;
#482 = AXIS2_PLACEMENT_3D ( 'NONE', #659, #857, #1258 ) ;
#483 = ORIENTED_EDGE ( 'NONE', *, *, #398, .T. ) ;
#484 = DIRECTION ( 'NONE',  ( 0.0000000000000000000, -1.000000000000000000, 0.0000000000000000000 ) ) ;
#485 = AXIS2_PLACEMENT_3D ( 'NONE', #770, #276, #1082 ) ;
#486 = CARTESIAN_POINT ( 'NONE',  ( -0.1499999999999999667, 0.02000000000000005246, -0.7799999999999999156 ) ) ;
#487 = DIRECTION ( 'NONE',  ( 0.0000000000000000000, 0.0000000000000000000, -1.000000000000000000 ) ) ;
#488 = FACE_OUTER_BOUND ( 'NONE', #532, .T. ) ;
#489 = CIRCLE ( 'NONE', #846, 0.01333333333333340531 ) ;
#490 = SPHERICAL_SURFACE ( 'NONE', #359, 0.02000000000000000042 ) ;
#491 = VERTEX_POINT ( 'NONE', #699 ) ;
#492 = EDGE_CURVE ( 'NONE', #1174, #156, #179, .T. ) ;
#493 = CARTESIAN_POINT ( 'NONE',  ( 0.1499999999999999667, 0.5300000000000000266, -0.7999999999999999334 ) ) ;
#494 = ORIENTED_EDGE ( 'NONE', *, *, #607, .F. ) ;
#495 = CARTESIAN_POINT ( 'NONE',  ( -0.1499999999999997446, 0.0000000000000000000, 0.7800000000000003597 ) ) ;
#496 = ORIENTED_EDGE ( 'NONE', *, *, #986, .T. ) ;
#497 = CLOSED_SHELL ( 'NONE', ( #1005, #1022, #844, #213, #1250, #818, #955, #440, #338, #1107 ) ) ;
#498 = AXIS2_PLACEMENT_3D ( 'NONE', #421, #309, #127 ) ;
#499 = DIRECTION ( 'NONE',  ( -0.0000000000000000000, -0.0000000000000000000, -1.000000000000000000 ) ) ;
#500 = DIRECTION ( 'NONE',  ( 0.0000000000000000000, 0.0000000000000000000, -1.000000000000000000 ) ) ;
#501 = DIRECTION ( 'NONE',  ( 0.0000000000000000000, 0.0000000000000000000, -1.000000000000000000 ) ) ;
#502 = FACE_OUTER_BOUND ( 'NONE', #1251, .T. ) ;
#503 = CIRCLE ( 'NONE', #100, 0.01999999999999999695 ) ;
#504 = ADVANCED_FACE ( 'NONE', ( #132 ), #1076, .T. ) ;
#505 = PRESENTATION_STYLE_ASSIGNMENT (( #867 ) ) ;
#506 = CARTESIAN_POINT ( 'NONE',  ( -0.3799999999999997269, 0.02000000000000000042, 0.7800000000000002487 ) ) ;
#507 = FACE_OUTER_BOUND ( 'NONE', #1234, .T. ) ;
#508 = DIRECTION ( 'NONE',  ( -1.000000000000000000, 0.0000000000000000000, 0.0000000000000000000 ) ) ;
#509 = AXIS2_PLACEMENT_3D ( 'NONE', #1099, #597, #707 ) ;
#510 = VERTEX_POINT ( 'NONE', #522 ) ;
#511 = ORIENTED_EDGE ( 'NONE', *, *, #916, .T. ) ;
#512 = DIRECTION ( 'NONE',  ( 0.0000000000000000000, -1.000000000000000000, 0.0000000000000000000 ) ) ;
#513 = VERTEX_POINT ( 'NONE', #41 ) ;
#514 = CARTESIAN_POINT ( 'NONE',  ( -0.3800000000000000044, 0.5500000000000000444, -0.7799999999999999156 ) ) ;
#515 = CARTESIAN_POINT ( 'NONE',  ( -0.1499999999999998002, 0.5300000000000000266, 0.7800000000000002487 ) ) ;
#516 = CARTESIAN_POINT ( 'NONE',  ( 0.1499999999999997446, 0.02000000000000005246, 0.8000000000000002665 ) ) ;
#517 = CARTESIAN_POINT ( 'NONE',  ( 0.3999999999999997446, 0.02000000000000005246, 0.7800000000000002487 ) ) ;
#518 = EDGE_CURVE ( 'NONE', #1095, #378, #1043, .T. ) ;
#519 = CARTESIAN_POINT ( 'NONE',  ( 500000.0000000000582, 0.5433333333333333348, -0.7800000000433680025 ) ) ;
#520 = CYLINDRICAL_SURFACE ( 'NONE', #498, 0.01333333333333340531 ) ;
#521 = DIRECTION ( 'NONE',  ( 1.000000000000000000, 0.0000000000000000000, -8.673617379884036705E-17 ) ) ;
#522 = CARTESIAN_POINT ( 'NONE',  ( 0.3999999999999997446, 0.5300000000000000266, 0.7800000000000002487 ) ) ;
#523 = CARTESIAN_POINT ( 'NONE',  ( -0.3999999999999997446, 0.02000000000000005246, 0.8000000000000002665 ) ) ;
#524 = CYLINDRICAL_SURFACE ( 'NONE', #202, 0.02000000000000005246 ) ;
#525 = AXIS2_PLACEMENT_3D ( 'NONE', #144, #931, #1240 ) ;
#526 = VECTOR ( 'NONE', #1084, 1000.000000000000000 ) ;
#527 = ORIENTED_EDGE ( 'NONE', *, *, #567, .T. ) ;
#528 = ORIENTED_EDGE ( 'NONE', *, *, #858, .F. ) ;
#529 = AXIS2_PLACEMENT_3D ( 'NONE', #928, #610, #1017 ) ;
#530 = EDGE_LOOP ( 'NONE', ( #14, #1062, #1247, #272 ) ) ;
#531 = DIRECTION ( 'NONE',  ( -1.000000000000000000, 0.0000000000000000000, 0.0000000000000000000 ) ) ;
#532 = EDGE_LOOP ( 'NONE', ( #175, #1048, #801, #298 ) ) ;
#533 =( NAMED_UNIT ( * ) SI_UNIT ( $, .STERADIAN. ) SOLID_ANGLE_UNIT ( ) );
#534 = PLANE ( 'NONE',  #1011 ) ;
#535 = CARTESIAN_POINT ( 'NONE',  ( -0.1499999999999999667, 0.5500000000000000444, -0.7799999999999999156 ) ) ;
#536 = ADVANCED_FACE ( 'NONE', ( #23 ), #429, .T. ) ;
#537 = EDGE_CURVE ( 'NONE', #109, #1067, #692, .T. ) ;
#538 = CARTESIAN_POINT ( 'NONE',  ( -0.1499999999999999667, 0.0000000000000000000, -0.7999999999999999334 ) ) ;
#539 = DIRECTION ( 'NONE',  ( -1.000000000000000000, 0.0000000000000000000, 1.355252715606880296E-16 ) ) ;
#540 = CYLINDRICAL_SURFACE ( 'NONE', #81, 0.01999999999999999695 ) ;
#541 = VECTOR ( 'NONE', #585, 1000.000000000000000 ) ;
#542 = FACE_OUTER_BOUND ( 'NONE', #759, .T. ) ;
#543 = DIRECTION ( 'NONE',  ( -1.000000000000000000, -0.0000000000000000000, -0.0000000000000000000 ) ) ;
#544 = ADVANCED_FACE ( 'NONE', ( #1209 ), #321, .F. ) ;
#545 = ORIENTED_EDGE ( 'NONE', *, *, #1166, .T. ) ;
#546 = EDGE_CURVE ( 'NONE', #576, #936, #794, .T. ) ;
#547 = ORIENTED_EDGE ( 'NONE', *, *, #986, .F. ) ;
#548 = ORIENTED_EDGE ( 'NONE', *, *, #96, .T. ) ;
#549 = EDGE_CURVE ( 'NONE', #210, #1077, #1088, .T. ) ;
#550 = ORIENTED_EDGE ( 'NONE', *, *, #785, .T. ) ;
#551 = CARTESIAN_POINT ( 'NONE',  ( -0.1499999999999999112, 0.5433333333333333348, -0.7799999999999999156 ) ) ;
#552 = DIRECTION ( 'NONE',  ( 1.694065894508600185E-16, -0.0000000000000000000, 1.000000000000000000 ) ) ;
#553 = DIRECTION ( 'NONE',  ( 0.0000000000000000000, 0.0000000000000000000, 1.000000000000000000 ) ) ;
#554 = AXIS2_PLACEMENT_3D ( 'NONE', #797, #237, #807 ) ;
#555 = PRODUCT_CONTEXT ( 'NONE', #149, 'mechanical' ) ;
#556 = ADVANCED_FACE ( 'NONE', ( #542 ), #558, .T. ) ;
#557 = FACE_OUTER_BOUND ( 'NONE', #803, .T. ) ;
#558 = CYLINDRICAL_SURFACE ( 'NONE', #1179, 0.02000000000000005246 ) ;
#559 = LINE ( 'NONE', #731, #170 ) ;
#560 = VERTEX_POINT ( 'NONE', #142 ) ;
#561 = ORIENTED_EDGE ( 'NONE', *, *, #733, .F. ) ;
#562 = CARTESIAN_POINT ( 'NONE',  ( -0.3799999999999997269, 0.5500000000000000444, 0.8000000000000002665 ) ) ;
#563 = ORIENTED_EDGE ( 'NONE', *, *, #161, .T. ) ;
#564 = ORIENTED_EDGE ( 'NONE', *, *, #277, .F. ) ;
#565 = DIRECTION ( 'NONE',  ( 0.0000000000000000000, 1.000000000000000000, 0.0000000000000000000 ) ) ;
#566 = EDGE_CURVE ( 'NONE', #592, #491, #769, .T. ) ;
#567 = EDGE_CURVE ( 'NONE', #560, #210, #683, .T. ) ;
#568 = DIRECTION ( 'NONE',  ( 1.000000000000000000, 0.0000000000000000000, 1.355252715606880296E-16 ) ) ;
#569 = LINE ( 'NONE', #1255, #19 ) ;
#570 = DIRECTION ( 'NONE',  ( 0.0000000000000000000, 0.0000000000000000000, 1.000000000000000000 ) ) ;
#571 = SPHERICAL_SURFACE ( 'NONE', #690, 0.02000000000000000042 ) ;
#572 =( NAMED_UNIT ( * ) PLANE_ANGLE_UNIT ( ) SI_UNIT ( $, .RADIAN. ) );
#573 = VECTOR ( 'NONE', #966, 1000.000000000000000 ) ;
#574 = CARTESIAN_POINT ( 'NONE',  ( -0.3799999999999997824, 0.5500000000000000444, 0.7800000000000002487 ) ) ;
#575 = CYLINDRICAL_SURFACE ( 'NONE', #580, 0.02000000000000005246 ) ;
#576 = VERTEX_POINT ( 'NONE', #341 ) ;
#577 = CARTESIAN_POINT ( 'NONE',  ( 0.3799999999999997269, 0.5300000000000000266, 0.8000000000000002665 ) ) ;
#578 = VERTEX_POINT ( 'NONE', #57 ) ;
#579 = ORIENTED_EDGE ( 'NONE', *, *, #1074, .F. ) ;
#580 = AXIS2_PLACEMENT_3D ( 'NONE', #711, #1118, #500 ) ;
#581 = DIRECTION ( 'NONE',  ( 0.0000000000000000000, 0.0000000000000000000, -1.000000000000000000 ) ) ;
#582 = DIRECTION ( 'NONE',  ( 1.000000000000000000, 0.0000000000000000000, 0.0000000000000000000 ) ) ;
#583 = PRESENTATION_STYLE_ASSIGNMENT (( #958 ) ) ;
#584 = LINE ( 'NONE', #1269, #130 ) ;
#585 = DIRECTION ( 'NONE',  ( 0.0000000000000000000, 1.000000000000000000, 0.0000000000000000000 ) ) ;
#586 = VECTOR ( 'NONE', #1108, 1000.000000000000000 ) ;
#587 = CARTESIAN_POINT ( 'NONE',  ( 0.1499999999999997446, 0.02000000000000005246, 0.7800000000000002487 ) ) ;
#588 = LINE ( 'NONE', #1171, #304 ) ;
#589 = ORIENTED_EDGE ( 'NONE', *, *, #1058, .T. ) ;
#590 = DIRECTION ( 'NONE',  ( 0.0000000000000000000, 1.000000000000000000, 0.0000000000000000000 ) ) ;
#591 = VERTEX_POINT ( 'NONE', #721 ) ;
#592 = VERTEX_POINT ( 'NONE', #230 ) ;
#593 = EDGE_LOOP ( 'NONE', ( #822, #1183, #756, #970 ) ) ;
#594 = STYLED_ITEM ( 'NONE', ( #836 ), #310 ) ;
#595 = VECTOR ( 'NONE', #644, 1000.000000000000000 ) ;
#596 = EDGE_CURVE ( 'NONE', #442, #387, #282, .T. ) ;
#597 = DIRECTION ( 'NONE',  ( -1.000000000000000000, -0.0000000000000000000, 8.673617379884036705E-17 ) ) ;
#598 = FACE_OUTER_BOUND ( 'NONE', #97, .T. ) ;
#599 = ORIENTED_EDGE ( 'NONE', *, *, #916, .F. ) ;
#600 = CARTESIAN_POINT ( 'NONE',  ( -0.1499999999999999112, 0.5300000000000000266, -0.7799999999999999156 ) ) ;
#601 = ORIENTED_EDGE ( 'NONE', *, *, #1035, .F. ) ;
#602 = CARTESIAN_POINT ( 'NONE',  ( -0.3799999999999997269, 0.5300000000000000266, 0.8000000000000002665 ) ) ;
#603 = ORIENTED_EDGE ( 'NONE', *, *, #218, .T. ) ;
#604 = VERTEX_POINT ( 'NONE', #917 ) ;
#605 = EDGE_CURVE ( 'NONE', #709, #1235, #169, .T. ) ;
#606 = CARTESIAN_POINT ( 'NONE',  ( 0.1500000000191903382, 0.5300000000000000266, 0.7933333333333335569 ) ) ;
#607 = EDGE_CURVE ( 'NONE', #1232, #774, #411, .T. ) ;
#608 = CARTESIAN_POINT ( 'NONE',  ( 0.0000000000000000000, 0.5300000000000000266, -0.7799999999999999156 ) ) ;
#609 = STYLED_ITEM ( 'NONE', ( #583 ), #470 ) ;
#610 = DIRECTION ( 'NONE',  ( 0.0000000000000000000, 0.0000000000000000000, -1.000000000000000000 ) ) ;
#611 = LINE ( 'NONE', #995, #586 ) ;
#612 = CIRCLE ( 'NONE', #860, 0.01333333333333340531 ) ;
#613 = CARTESIAN_POINT ( 'NONE',  ( 0.1499999999999997446, 0.5500000000000000444, 0.8000000000000002665 ) ) ;
#614 = ADVANCED_FACE ( 'NONE', ( #360 ), #1042, .F. ) ;
#615 = DIRECTION ( 'NONE',  ( 1.000000000000000000, -0.0000000000000000000, -1.355252715606880296E-16 ) ) ;
#616 = AXIS2_PLACEMENT_3D ( 'NONE', #383, #757, #1163 ) ;
#617 = ORIENTED_EDGE ( 'NONE', *, *, #763, .T. ) ;
#618 = DIRECTION ( 'NONE',  ( -1.000000000000000000, -2.710505431213754380E-15, 0.0000000000000000000 ) ) ;
#619 = VERTEX_POINT ( 'NONE', #974 ) ;
#620 = CARTESIAN_POINT ( 'NONE',  ( 0.4000000000000000222, 0.5500000000000000444, -0.7999999999999999334 ) ) ;
#621 = VERTEX_POINT ( 'NONE', #577 ) ;
#622 = DIRECTION ( 'NONE',  ( -1.000000000000000000, 0.0000000000000000000, 0.0000000000000000000 ) ) ;
#623 = DIRECTION ( 'NONE',  ( -1.000000000000000000, -0.0000000000000000000, -0.0000000000000000000 ) ) ;
#624 = DIRECTION ( 'NONE',  ( 0.0000000000000000000, 1.000000000000000000, 0.0000000000000000000 ) ) ;
#625 = ORIENTED_EDGE ( 'NONE', *, *, #469, .T. ) ;
#626 = DIRECTION ( 'NONE',  ( -1.000000000000000000, 0.0000000000000000000, 0.0000000000000000000 ) ) ;
#627 = ADVANCED_FACE ( 'NONE', ( #1243 ), #1181, .F. ) ;
#628 = DIRECTION ( 'NONE',  ( 0.0000000000000000000, 0.0000000000000000000, 1.000000000000000000 ) ) ;
#629 = CARTESIAN_POINT ( 'NONE',  ( -0.3800000000000000044, 0.5500000000000000444, -0.7999999999999999334 ) ) ;
#630 = EDGE_CURVE ( 'NONE', #453, #185, #1121, .T. ) ;
#631 = FACE_OUTER_BOUND ( 'NONE', #26, .T. ) ;
#632 = CARTESIAN_POINT ( 'NONE',  ( 0.3799999999999997824, 0.5500000000000000444, 0.8000000000000002665 ) ) ;
#633 = ADVANCED_FACE ( 'NONE', ( #1178 ), #471, .F. ) ;
#634 = CARTESIAN_POINT ( 'NONE',  ( -0.3800000000000000044, 0.02000000000000005246, -0.7799999999999999156 ) ) ;
#635 = CIRCLE ( 'NONE', #1172, 0.02000000000000005246 ) ;
#636 = EDGE_CURVE ( 'NONE', #1130, #654, #664, .T. ) ;
#637 = EDGE_LOOP ( 'NONE', ( #220, #991, #85, #1201 ) ) ;
#638 = PLANE ( 'NONE',  #525 ) ;
#639 = ORIENTED_EDGE ( 'NONE', *, *, #656, .T. ) ;
#640 = DIRECTION ( 'NONE',  ( -0.0000000000000000000, -1.000000000000000000, -0.0000000000000000000 ) ) ;
#641 = ORIENTED_EDGE ( 'NONE', *, *, #1098, .F. ) ;
#642 = ADVANCED_FACE ( 'NONE', ( #815 ), #571, .T. ) ;
#643 = ORIENTED_EDGE ( 'NONE', *, *, #342, .T. ) ;
#644 = DIRECTION ( 'NONE',  ( -1.694065894508600185E-16, 0.0000000000000000000, -1.000000000000000000 ) ) ;
#645 = CARTESIAN_POINT ( 'NONE',  ( -0.3999999999999997446, 0.5500000000000000444, 0.7800000000000003597 ) ) ;
#646 = AXIS2_PLACEMENT_3D ( 'NONE', #935, #640, #915 ) ;
#647 = CARTESIAN_POINT ( 'NONE',  ( 0.1500000000191903382, 0.5300000000000000266, 0.7933333333333335569 ) ) ;
#648 = DIRECTION ( 'NONE',  ( -0.0000000000000000000, 0.0000000000000000000, -1.000000000000000000 ) ) ;
#649 = CARTESIAN_POINT ( 'NONE',  ( -0.1499999999999999112, 0.02000000000000005246, -0.7799999999999999156 ) ) ;
#650 = VECTOR ( 'NONE', #59, 1000.000000000000000 ) ;
#651 = DIRECTION ( 'NONE',  ( -1.000000000000000000, -0.0000000000000000000, -0.0000000000000000000 ) ) ;
#652 = VECTOR ( 'NONE', #1015, 1000.000000000000000 ) ;
#653 = VERTEX_POINT ( 'NONE', #898 ) ;
#654 = VERTEX_POINT ( 'NONE', #200 ) ;
#655 = CARTESIAN_POINT ( 'NONE',  ( 500000.0000000000582, 0.5300000000000000266, 0.7933333332899654700 ) ) ;
#656 = EDGE_CURVE ( 'NONE', #1027, #348, #103, .T. ) ;
#657 = ORIENTED_EDGE ( 'NONE', *, *, #785, .F. ) ;
#658 = DIRECTION ( 'NONE',  ( 0.0000000000000000000, -1.000000000000000000, 0.0000000000000000000 ) ) ;
#659 = CARTESIAN_POINT ( 'NONE',  ( 0.3799999999999997269, 0.5300000000000000266, 0.7800000000000002487 ) ) ;
#660 = AXIS2_PLACEMENT_3D ( 'NONE', #948, #53, #166 ) ;
#661 = STYLED_ITEM ( 'NONE', ( #505 ), #392 ) ;
#662 = SURFACE_SIDE_STYLE ('',( #279 ) ) ;
#663 = LINE ( 'NONE', #172, #445 ) ;
#664 = LINE ( 'NONE', #102, #793 ) ;
#665 = CYLINDRICAL_SURFACE ( 'NONE', #1159, 0.02000000000000005246 ) ;
#666 = VERTEX_POINT ( 'NONE', #215 ) ;
#667 = CARTESIAN_POINT ( 'NONE',  ( 500000.0000000000582, 0.02000000000000026756, 0.7933333332899654700 ) ) ;
#668 = VERTEX_POINT ( 'NONE', #307 ) ;
#669 = FILL_AREA_STYLE_COLOUR ( '', #104 ) ;
#670 = EDGE_CURVE ( 'NONE', #936, #1130, #1102, .T. ) ;
#671 = DIRECTION ( 'NONE',  ( 1.000000000000000000, 0.0000000000000000000, 0.0000000000000000000 ) ) ;
#672 = ORIENTED_EDGE ( 'NONE', *, *, #1228, .F. ) ;
#673 = ORIENTED_EDGE ( 'NONE', *, *, #1026, .F. ) ;
#674 = CARTESIAN_POINT ( 'NONE',  ( -0.3800000000000000044, 0.02000000000000000042, -0.7799999999999999156 ) ) ;
#675 =( LENGTH_UNIT ( ) NAMED_UNIT ( * ) SI_UNIT ( .MILLI., .METRE. ) );
#676 = CARTESIAN_POINT ( 'NONE',  ( 0.3800000000000000044, 0.5300000000000000266, -0.7799999999999999156 ) ) ;
#677 = EDGE_CURVE ( 'NONE', #787, #774, #739, .T. ) ;
#678 = CARTESIAN_POINT ( 'NONE',  ( 0.1500000000191903382, 0.02000000000000026756, 0.7933333333333335569 ) ) ;
#679 = LINE ( 'NONE', #417, #1193 ) ;
#680 = EDGE_CURVE ( 'NONE', #133, #418, #702, .T. ) ;
#681 = VECTOR ( 'NONE', #826, 1000.000000000000000 ) ;
#682 = CARTESIAN_POINT ( 'NONE',  ( -0.1499999999999999667, 0.5500000000000000444, -0.7999999999999999334 ) ) ;
#683 = LINE ( 'NONE', #903, #1001 ) ;
#684 = FACE_OUTER_BOUND ( 'NONE', #746, .T. ) ;
#685 = ORIENTED_EDGE ( 'NONE', *, *, #962, .T. ) ;
#686 = PRESENTATION_LAYER_ASSIGNMENT (  '', '', ( #609 ) ) ;
#687 =( NAMED_UNIT ( * ) SI_UNIT ( $, .STERADIAN. ) SOLID_ANGLE_UNIT ( ) );
#688 = EDGE_LOOP ( 'NONE', ( #625, #786, #599 ) ) ;
#689 = ORIENTED_EDGE ( 'NONE', *, *, #1228, .T. ) ;
#690 = AXIS2_PLACEMENT_3D ( 'NONE', #762, #187, #5 ) ;
#691 = DIRECTION ( 'NONE',  ( 1.000000000000000000, 0.0000000000000000000, 0.0000000000000000000 ) ) ;
#692 = LINE ( 'NONE', #816, #65 ) ;
#693 = LINE ( 'NONE', #493, #24 ) ;
#694 = EDGE_LOOP ( 'NONE', ( #823, #1078, #284, #173 ) ) ;
#695 = EDGE_CURVE ( 'NONE', #348, #592, #168, .T. ) ;
#696 = EDGE_LOOP ( 'NONE', ( #547, #796, #189, #494 ) ) ;
#697 = UNCERTAINTY_MEASURE_WITH_UNIT (LENGTH_MEASURE( 1.000000000000000082E-05 ), #750, 'distance_accuracy_value', 'NONE');
#698 = ORIENTED_EDGE ( 'NONE', *, *, #218, .F. ) ;
#699 = CARTESIAN_POINT ( 'NONE',  ( 0.1499999999999999667, 0.02000000000000005246, -0.7999999999999999334 ) ) ;
#700 = DIRECTION ( 'NONE',  ( 1.000000000000000000, 0.0000000000000000000, -1.694065894508600185E-16 ) ) ;
#701 = CYLINDRICAL_SURFACE ( 'NONE', #764, 0.01999999999999999695 ) ;
#702 = LINE ( 'NONE', #7, #541 ) ;
#703 = LINE ( 'NONE', #519, #66 ) ;
#704 = DIRECTION ( 'NONE',  ( 1.000000000000000000, 0.0000000000000000000, 0.0000000000000000000 ) ) ;
#705 = EDGE_LOOP ( 'NONE', ( #296, #246, #548, #1049 ) ) ;
#706 = DIRECTION ( 'NONE',  ( 1.000000000000000000, 0.0000000000000000000, 0.0000000000000000000 ) ) ;
#707 = DIRECTION ( 'NONE',  ( 0.0000000000000000000, 0.0000000000000000000, 1.000000000000000000 ) ) ;
#708 = ORIENTED_EDGE ( 'NONE', *, *, #492, .T. ) ;
#709 = VERTEX_POINT ( 'NONE', #1090 ) ;
#710 = ADVANCED_FACE ( 'NONE', ( #557 ), #1151, .T. ) ;
#711 = CARTESIAN_POINT ( 'NONE',  ( 0.3800000000000000044, 0.5500000000000000444, -0.7799999999999999156 ) ) ;
#712 = DIRECTION ( 'NONE',  ( 1.000000000000000000, 0.0000000000000000000, 1.355252715606880296E-16 ) ) ;
#713 = DIRECTION ( 'NONE',  ( 0.0000000000000000000, 0.0000000000000000000, 1.000000000000000000 ) ) ;
#714 = EDGE_CURVE ( 'NONE', #653, #273, #94, .T. ) ;
#715 = DIRECTION ( 'NONE',  ( 0.0000000000000000000, 0.0000000000000000000, -1.000000000000000000 ) ) ;
#716 = SHAPE_DEFINITION_REPRESENTATION ( #840, #470 ) ;
#717 = DIRECTION ( 'NONE',  ( 0.0000000000000000000, -1.000000000000000000, 0.0000000000000000000 ) ) ;
#718 = ADVANCED_FACE ( 'NONE', ( #302 ), #834, .T. ) ;
#719 = CARTESIAN_POINT ( 'NONE',  ( 0.1499999999999997446, 0.5300000000000000266, 0.7800000000000002487 ) ) ;
#720 = AXIS2_PLACEMENT_3D ( 'NONE', #1051, #450, #349 ) ;
#721 = CARTESIAN_POINT ( 'NONE',  ( -0.3799999999999997269, 0.02000000000000005246, 0.8000000000000002665 ) ) ;
#722 = VECTOR ( 'NONE', #1045, 1000.000000000000000 ) ;
#723 = CIRCLE ( 'NONE', #1137, 0.02000000000000005246 ) ;
#724 = CIRCLE ( 'NONE', #1016, 0.01333333333333340531 ) ;
#725 = CARTESIAN_POINT ( 'NONE',  ( -0.3999999999999997446, 0.02000000000000005246, 0.7800000000000002487 ) ) ;
#726 = AXIS2_PLACEMENT_3D ( 'NONE', #286, #484, #192 ) ;
#727 = ORIENTED_EDGE ( 'NONE', *, *, #1100, .F. ) ;
#728 = ORIENTED_EDGE ( 'NONE', *, *, #780, .F. ) ;
#729 = EDGE_LOOP ( 'NONE', ( #1127, #951, #1030 ) ) ;
#730 = CARTESIAN_POINT ( 'NONE',  ( 0.0000000000000000000, 0.5300000000000000266, 0.7800000000000002487 ) ) ;
#731 = CARTESIAN_POINT ( 'NONE',  ( 500000.0000000000582, 0.5300000000000000266, 0.7933333332899654700 ) ) ;
#732 = EDGE_LOOP ( 'NONE', ( #379, #1081, #641 ) ) ;
#733 = EDGE_CURVE ( 'NONE', #156, #513, #63, .T. ) ;
#734 = DIRECTION ( 'NONE',  ( 0.0000000000000000000, -0.0000000000000000000, 1.000000000000000000 ) ) ;
#735 = DIRECTION ( 'NONE',  ( 0.0000000000000000000, -1.000000000000000000, 0.0000000000000000000 ) ) ;
#736 = LINE ( 'NONE', #176, #960 ) ;
#737 =( LENGTH_UNIT ( ) NAMED_UNIT ( * ) SI_UNIT ( .MILLI., .METRE. ) );
#738 = DIRECTION ( 'NONE',  ( -1.000000000000000000, 0.0000000000000000000, 0.0000000000000000000 ) ) ;
#739 = LINE ( 'NONE', #391, #1075 ) ;
#740 = EDGE_CURVE ( 'NONE', #653, #668, #21, .T. ) ;
#741 = CIRCLE ( 'NONE', #313, 0.01333333333333340531 ) ;
#742 = ORIENTED_EDGE ( 'NONE', *, *, #342, .F. ) ;
#743 = ORIENTED_EDGE ( 'NONE', *, *, #1132, .T. ) ;
#744 = EDGE_CURVE ( 'NONE', #604, #442, #475, .T. ) ;
#745 = ORIENTED_EDGE ( 'NONE', *, *, #549, .T. ) ;
#746 = EDGE_LOOP ( 'NONE', ( #390, #896, #206, #1200 ) ) ;
#747 = SURFACE_SIDE_STYLE ('',( #1117 ) ) ;
#748 = AXIS2_PLACEMENT_3D ( 'NONE', #924, #570, #178 ) ;
#749 = AXIS2_PLACEMENT_3D ( 'NONE', #486, #3, #1086 ) ;
#750 =( LENGTH_UNIT ( ) NAMED_UNIT ( * ) SI_UNIT ( .MILLI., .METRE. ) );
#751 = CIRCLE ( 'NONE', #30, 0.01333333333333340531 ) ;
#752 = FACE_OUTER_BOUND ( 'NONE', #1168, .T. ) ;
#753 = DIRECTION ( 'NONE',  ( 1.694065894508600185E-16, -0.0000000000000000000, -1.000000000000000000 ) ) ;
#754 = FACE_OUTER_BOUND ( 'NONE', #732, .T. ) ;
#755 = ORIENTED_EDGE ( 'NONE', *, *, #1007, .T. ) ;
#756 = ORIENTED_EDGE ( 'NONE', *, *, #407, .T. ) ;
#757 = DIRECTION ( 'NONE',  ( 0.0000000000000000000, 0.0000000000000000000, 1.000000000000000000 ) ) ;
#758 = FILL_AREA_STYLE ('',( #88 ) ) ;
#759 = EDGE_LOOP ( 'NONE', ( #639, #603, #708, #121 ) ) ;
#760 = DIRECTION ( 'NONE',  ( 0.0000000000000000000, 0.0000000000000000000, -1.000000000000000000 ) ) ;
#761 = ORIENTED_EDGE ( 'NONE', *, *, #164, .T. ) ;
#762 = CARTESIAN_POINT ( 'NONE',  ( -0.3799999999999997269, 0.5300000000000000266, 0.7800000000000002487 ) ) ;
#763 = EDGE_CURVE ( 'NONE', #1266, #382, #397, .T. ) ;
#764 = AXIS2_PLACEMENT_3D ( 'NONE', #61, #552, #438 ) ;
#765 = CARTESIAN_POINT ( 'NONE',  ( 0.1499999999999999667, 0.5500000000000000444, -0.7999999999999999334 ) ) ;
#766 = VECTOR ( 'NONE', #753, 1000.000000000000000 ) ;
#767 = LINE ( 'NONE', #1190, #1208 ) ;
#768 = MANIFOLD_SOLID_BREP ( 'Mirror2', #468 ) ;
#769 = CIRCLE ( 'NONE', #1199, 0.02000000000000005246 ) ;
#770 = CARTESIAN_POINT ( 'NONE',  ( 0.0000000000000000000, 0.0000000000000000000, 0.0000000000000000000 ) ) ;
#771 = FACE_OUTER_BOUND ( 'NONE', #881, .T. ) ;
#772 = SURFACE_SIDE_STYLE ('',( #183 ) ) ;
#773 = ORIENTED_EDGE ( 'NONE', *, *, #1065, .T. ) ;
#774 = VERTEX_POINT ( 'NONE', #388 ) ;
#775 = AXIS2_PLACEMENT_3D ( 'NONE', #208, #900, #311 ) ;
#776 = EDGE_LOOP ( 'NONE', ( #545, #1047, #226, #464, #71, #31, #979, #761 ) ) ;
#777 = DIRECTION ( 'NONE',  ( 1.000000000000000000, 0.0000000000000000000, 0.0000000000000000000 ) ) ;
#778 = DIRECTION ( 'NONE',  ( 1.694065894508600185E-16, -0.0000000000000000000, 1.000000000000000000 ) ) ;
#779 = DIRECTION ( 'NONE',  ( 6.950013926189131872E-17, 0.0000000000000000000, 1.000000000000000000 ) ) ;
#780 = EDGE_CURVE ( 'NONE', #351, #133, #584, .T. ) ;
#781 = VECTOR ( 'NONE', #835, 1000.000000000000000 ) ;
#782 = CIRCLE ( 'NONE', #788, 0.01999999999999999695 ) ;
#783 = LINE ( 'NONE', #42, #1152 ) ;
#784 = ORIENTED_EDGE ( 'NONE', *, *, #1237, .F. ) ;
#785 = EDGE_CURVE ( 'NONE', #578, #621, #767, .T. ) ;
#786 = ORIENTED_EDGE ( 'NONE', *, *, #596, .T. ) ;
#787 = VERTEX_POINT ( 'NONE', #551 ) ;
#788 = AXIS2_PLACEMENT_3D ( 'NONE', #790, #499, #508 ) ;
#789 = EDGE_LOOP ( 'NONE', ( #119, #841, #617, #965 ) ) ;
#790 = CARTESIAN_POINT ( 'NONE',  ( -0.3800000000000000044, 0.02000000000000000042, -0.7799999999999999156 ) ) ;
#791 = EDGE_CURVE ( 'NONE', #210, #1129, #635, .T. ) ;
#792 = CYLINDRICAL_SURFACE ( 'NONE', #167, 0.02000000000000005246 ) ;
#793 = VECTOR ( 'NONE', #292, 1000.000000000000000 ) ;
#794 = LINE ( 'NONE', #1219, #78 ) ;
#795 = DIRECTION ( 'NONE',  ( 0.0000000000000000000, 0.0000000000000000000, -1.000000000000000000 ) ) ;
#796 = ORIENTED_EDGE ( 'NONE', *, *, #15, .T. ) ;
#797 = CARTESIAN_POINT ( 'NONE',  ( 0.3799999999999997824, 0.5300000000000000266, 0.7800000000000002487 ) ) ;
#798 = DIRECTION ( 'NONE',  ( 0.0000000000000000000, 0.0000000000000000000, -1.000000000000000000 ) ) ;
#799 = EDGE_LOOP ( 'NONE', ( #893, #70, #366, #727 ) ) ;
#800 = ADVANCED_FACE ( 'NONE', ( #1087 ), #811, .T. ) ;
#801 = ORIENTED_EDGE ( 'NONE', *, *, #596, .F. ) ;
#802 = DIRECTION ( 'NONE',  ( 1.000000000000000000, 0.0000000000000000000, 0.0000000000000000000 ) ) ;
#803 = EDGE_LOOP ( 'NONE', ( #745, #589, #467 ) ) ;
#804 = PLANE ( 'NONE',  #1155 ) ;
#805 = EDGE_CURVE ( 'NONE', #668, #109, #1195, .T. ) ;
#806 = DIRECTION ( 'NONE',  ( 0.0000000000000000000, 0.0000000000000000000, -1.000000000000000000 ) ) ;
#807 = DIRECTION ( 'NONE',  ( -1.000000000000000000, 0.0000000000000000000, 0.0000000000000000000 ) ) ;
#808 = PRODUCT_DEFINITION ( 'UNKNOWN', '', #879, #265 ) ;
#809 = CARTESIAN_POINT ( 'NONE',  ( -0.3799999999999997269, 0.5300000000000000266, 0.7800000000000002487 ) ) ;
#810 = CARTESIAN_POINT ( 'NONE',  ( -0.4000000000000000222, 0.5500000000000000444, -0.7999999999999999334 ) ) ;
#811 = SPHERICAL_SURFACE ( 'NONE', #1192, 0.02000000000000000042 ) ;
#812 = DIRECTION ( 'NONE',  ( -1.000000000000000000, 0.0000000000000000000, 0.0000000000000000000 ) ) ;
#813 = CARTESIAN_POINT ( 'NONE',  ( 0.1499999999999999667, 0.5300000000000000266, -0.7799999999999999156 ) ) ;
#814 = AXIS2_PLACEMENT_3D ( 'NONE', #676, #195, #874 ) ;
#815 = FACE_OUTER_BOUND ( 'NONE', #688, .T. ) ;
#816 = CARTESIAN_POINT ( 'NONE',  ( 0.1499999999999997446, 0.5500000000000000444, 0.7800000000000002487 ) ) ;
#817 = LINE ( 'NONE', #629, #906 ) ;
#818 = ADVANCED_FACE ( 'NONE', ( #927 ), #409, .T. ) ;
#819 = ORIENTED_EDGE ( 'NONE', *, *, #630, .T. ) ;
#820 = VERTEX_POINT ( 'NONE', #443 ) ;
#821 = DIRECTION ( 'NONE',  ( 1.000000000000000000, 0.0000000000000000000, 1.694065894508600925E-16 ) ) ;
#822 = ORIENTED_EDGE ( 'NONE', *, *, #853, .F. ) ;
#823 = ORIENTED_EDGE ( 'NONE', *, *, #370, .F. ) ;
#824 = EDGE_CURVE ( 'NONE', #261, #1077, #1164, .T. ) ;
#825 = FILL_AREA_STYLE_COLOUR ( '', #944 ) ;
#826 = DIRECTION ( 'NONE',  ( -0.0000000000000000000, 1.000000000000000000, -0.0000000000000000000 ) ) ;
#827 = DIRECTION ( 'NONE',  ( 1.355252715606880296E-16, 0.0000000000000000000, 1.000000000000000000 ) ) ;
#828 = EDGE_CURVE ( 'NONE', #820, #261, #1139, .T. ) ;
#829 = APPLICATION_PROTOCOL_DEFINITION ( 'draft international standard', 'automotive_design', 1998, #149 ) ;
#830 = DIRECTION ( 'NONE',  ( -1.000000000000000000, -0.0000000000000000000, 8.673617379884036705E-17 ) ) ;
#831 = EDGE_CURVE ( 'NONE', #199, #560, #44, .T. ) ;
#832 =( GEOMETRIC_REPRESENTATION_CONTEXT ( 3 ) GLOBAL_UNCERTAINTY_ASSIGNED_CONTEXT ( ( #933 ) ) GLOBAL_UNIT_ASSIGNED_CONTEXT ( ( #181, #988, #687 ) ) REPRESENTATION_CONTEXT ( 'NONE', 'WORKASPACE' ) );
#833 = LINE ( 'NONE', #157, #595 ) ;
#834 = SPHERICAL_SURFACE ( 'NONE', #1170, 0.02000000000000000042 ) ;
#835 = DIRECTION ( 'NONE',  ( -1.355252715606880296E-16, -0.0000000000000000000, -1.000000000000000000 ) ) ;
#836 = PRESENTATION_STYLE_ASSIGNMENT (( #1165 ) ) ;
#837 = DIRECTION ( 'NONE',  ( 8.673617379884036705E-17, -0.0000000000000000000, 1.000000000000000000 ) ) ;
#838 = DIRECTION ( 'NONE',  ( -1.000000000000000000, 0.0000000000000000000, 0.0000000000000000000 ) ) ;
#839 = LINE ( 'NONE', #1093, #869 ) ;
#840 = PRODUCT_DEFINITION_SHAPE ( 'NONE', 'NONE',  #808 ) ;
#841 = ORIENTED_EDGE ( 'NONE', *, *, #938, .T. ) ;
#842 = ORIENTED_EDGE ( 'NONE', *, *, #733, .T. ) ;
#843 = DIRECTION ( 'NONE',  ( 1.000000000000000000, 0.0000000000000000000, -8.673617379884036705E-17 ) ) ;
#844 = ADVANCED_FACE ( 'NONE', ( #115 ), #534, .F. ) ;
#845 = ORIENTED_EDGE ( 'NONE', *, *, #297, .F. ) ;
#846 = AXIS2_PLACEMENT_3D ( 'NONE', #515, #303, #798 ) ;
#847 = CARTESIAN_POINT ( 'NONE',  ( 0.3799999999999997269, 0.02000000000000005246, 0.7800000000000002487 ) ) ;
#848 = CARTESIAN_POINT ( 'NONE',  ( 0.1499999999999999667, 0.5500000000000000444, -0.7999999999999999334 ) ) ;
#849 = PRESENTATION_STYLE_ASSIGNMENT (( #875 ) ) ;
#850 = VECTOR ( 'NONE', #465, 1000.000000000000000 ) ;
#851 = DIRECTION ( 'NONE',  ( 1.355252715606880296E-16, 0.0000000000000000000, -1.000000000000000000 ) ) ;
#852 = ORIENTED_EDGE ( 'NONE', *, *, #824, .T. ) ;
#853 = EDGE_CURVE ( 'NONE', #1232, #1173, #976, .T. ) ;
#854 = ORIENTED_EDGE ( 'NONE', *, *, #1260, .F. ) ;
#855 = ORIENTED_EDGE ( 'NONE', *, *, #17, .T. ) ;
#856 = ORIENTED_EDGE ( 'NONE', *, *, #90, .T. ) ;
#857 = DIRECTION ( 'NONE',  ( -1.000000000000000000, 2.710505431213754380E-15, -0.0000000000000000000 ) ) ;
#858 = EDGE_CURVE ( 'NONE', #1174, #513, #503, .T. ) ;
#859 = MECHANICAL_DESIGN_GEOMETRIC_PRESENTATION_REPRESENTATION (  '', ( #922 ), #832 ) ;
#860 = AXIS2_PLACEMENT_3D ( 'NONE', #373, #1267, #1083 ) ;
#861 = CARTESIAN_POINT ( 'NONE',  ( 0.0000000000000000000, 0.5300000000000000266, 0.7800000000000002487 ) ) ;
#862 = PLANE ( 'NONE',  #251 ) ;
#863 = LINE ( 'NONE', #365, #766 ) ;
#864 = LINE ( 'NONE', #447, #681 ) ;
#865 = DIRECTION ( 'NONE',  ( 0.0000000000000000000, 0.0000000000000000000, 1.000000000000000000 ) ) ;
#866 = CIRCLE ( 'NONE', #114, 0.01333333333333340531 ) ;
#867 = SURFACE_STYLE_USAGE ( .BOTH. , #86 ) ;
#868 = EDGE_CURVE ( 'NONE', #513, #510, #864, .T. ) ;
#869 = VECTOR ( 'NONE', #1097, 1000.000000000000000 ) ;
#870 = ORIENTED_EDGE ( 'NONE', *, *, #1098, .T. ) ;
#871 = CARTESIAN_POINT ( 'NONE',  ( 0.1500000000191903382, 0.5300000000000000266, -0.7799999999999999156 ) ) ;
#872 = ORIENTED_EDGE ( 'NONE', *, *, #76, .F. ) ;
#873 = VERTEX_POINT ( 'NONE', #249 ) ;
#874 = DIRECTION ( 'NONE',  ( 0.0000000000000000000, 0.0000000000000000000, 1.000000000000000000 ) ) ;
#875 = SURFACE_STYLE_USAGE ( .BOTH. , #662 ) ;
#876 = EDGE_CURVE ( 'NONE', #820, #1130, #999, .T. ) ;
#877 = PLANE ( 'NONE',  #726 ) ;
#878 = VECTOR ( 'NONE', #1196, 1000.000000000000000 ) ;
#879 = PRODUCT_DEFINITION_FORMATION_WITH_SPECIFIED_SOURCE ( 'ANY', '', #339, .NOT_KNOWN. ) ;
#880 = LINE ( 'NONE', #523, #1257 ) ;
#881 = EDGE_LOOP ( 'NONE', ( #742, #1264, #1124, #854 ) ) ;
#882 = CARTESIAN_POINT ( 'NONE',  ( 0.3800000000000000044, 0.5300000000000000266, -0.7799999999999999156 ) ) ;
#883 = ORIENTED_EDGE ( 'NONE', *, *, #16, .F. ) ;
#884 = AXIS2_PLACEMENT_3D ( 'NONE', #1189, #590, #582 ) ;
#885 = ORIENTED_EDGE ( 'NONE', *, *, #1035, .T. ) ;
#886 = ORIENTED_EDGE ( 'NONE', *, *, #426, .F. ) ;
#887 = EDGE_CURVE ( 'NONE', #668, #273, #255, .T. ) ;
#888 = EDGE_CURVE ( 'NONE', #382, #592, #194, .T. ) ;
#889 = FACE_OUTER_BOUND ( 'NONE', #463, .T. ) ;
#890 = VECTOR ( 'NONE', #73, 1000.000000000000000 ) ;
#891 = CARTESIAN_POINT ( 'NONE',  ( 0.3799999999999997269, 0.5300000000000000266, 0.7800000000000002487 ) ) ;
#892 = CYLINDRICAL_SURFACE ( 'NONE', #1050, 0.02000000000000005246 ) ;
#893 = ORIENTED_EDGE ( 'NONE', *, *, #791, .T. ) ;
#894 = EDGE_CURVE ( 'NONE', #1174, #382, #997, .T. ) ;
#895 = ORIENTED_EDGE ( 'NONE', *, *, #894, .F. ) ;
#896 = ORIENTED_EDGE ( 'NONE', *, *, #996, .T. ) ;
#897 = ORIENTED_EDGE ( 'NONE', *, *, #714, .T. ) ;
#898 = CARTESIAN_POINT ( 'NONE',  ( 0.4000000000000000222, 0.5300000000000000266, -0.7799999999999999156 ) ) ;
#899 = DIRECTION ( 'NONE',  ( -2.710505431213753985E-15, 0.0000000000000000000, 1.000000000000000000 ) ) ;
#900 = DIRECTION ( 'NONE',  ( 1.000000000000000000, 0.0000000000000000000, 0.0000000000000000000 ) ) ;
#901 = CARTESIAN_POINT ( 'NONE',  ( 0.3800000000000000044, 0.02000000000000000042, -0.7799999999999999156 ) ) ;
#902 = AXIS2_PLACEMENT_3D ( 'NONE', #813, #320, #914 ) ;
#903 = CARTESIAN_POINT ( 'NONE',  ( -0.4000000000000000222, 0.5300000000000000266, -0.7999999999999999334 ) ) ;
#904 = VECTOR ( 'NONE', #89, 1000.000000000000000 ) ;
#905 = DIRECTION ( 'NONE',  ( 0.0000000000000000000, 0.0000000000000000000, -1.000000000000000000 ) ) ;
#906 = VECTOR ( 'NONE', #385, 1000.000000000000000 ) ;
#907 = CARTESIAN_POINT ( 'NONE',  ( 0.1499999999999999667, 0.5300000000000000266, -0.7999999999999999334 ) ) ;
#908 = DIRECTION ( 'NONE',  ( -1.000000000000000000, -0.0000000000000000000, 8.673617379884036705E-17 ) ) ;
#909 = ORIENTED_EDGE ( 'NONE', *, *, #352, .F. ) ;
#910 = ORIENTED_EDGE ( 'NONE', *, *, #346, .T. ) ;
#911 = ORIENTED_EDGE ( 'NONE', *, *, #1100, .T. ) ;
#912 = DIRECTION ( 'NONE',  ( -8.673617379884036705E-17, 0.0000000000000000000, -1.000000000000000000 ) ) ;
#913 = ADVANCED_FACE ( 'NONE', ( #488 ), #792, .T. ) ;
#914 = DIRECTION ( 'NONE',  ( 0.0000000000000000000, 0.0000000000000000000, 1.000000000000000000 ) ) ;
#915 = DIRECTION ( 'NONE',  ( 0.0000000000000000000, 0.0000000000000000000, 1.000000000000000000 ) ) ;
#916 = EDGE_CURVE ( 'NONE', #560, #387, #60, .T. ) ;
#917 = CARTESIAN_POINT ( 'NONE',  ( -0.1499999999999997446, 0.5300000000000000266, 0.8000000000000002665 ) ) ;
#918 = PLANE ( 'NONE',  #1103 ) ;
#919 = CARTESIAN_POINT ( 'NONE',  ( -0.3800000000000000600, 0.5300000000000000266, -0.7799999999999999156 ) ) ;
#920 = CARTESIAN_POINT ( 'NONE',  ( 0.3800000000000000044, 0.5300000000000000266, -0.7999999999999999334 ) ) ;
#921 = EDGE_CURVE ( 'NONE', #621, #109, #1073, .T. ) ;
#922 = STYLED_ITEM ( 'NONE', ( #849 ), #768 ) ;
#923 = VECTOR ( 'NONE', #319, 1000.000000000000000 ) ;
#924 = CARTESIAN_POINT ( 'NONE',  ( 0.0000000000000000000, 0.0000000000000000000, 0.0000000000000000000 ) ) ;
#925 = CARTESIAN_POINT ( 'NONE',  ( 0.1500000000191903382, 0.5300000000000000266, 0.7800000000000002487 ) ) ;
#926 = AXIS2_PLACEMENT_3D ( 'NONE', #1034, #735, #838 ) ;
#927 = FACE_OUTER_BOUND ( 'NONE', #87, .T. ) ;
#928 = CARTESIAN_POINT ( 'NONE',  ( -0.3999999999999997446, 0.5500000000000000444, 0.8000000000000002665 ) ) ;
#929 = LINE ( 'NONE', #1142, #10 ) ;
#930 = ORIENTED_EDGE ( 'NONE', *, *, #656, .F. ) ;
#931 = DIRECTION ( 'NONE',  ( 0.0000000000000000000, 1.000000000000000000, 0.0000000000000000000 ) ) ;
#932 = DIRECTION ( 'NONE',  ( 0.0000000000000000000, 0.0000000000000000000, -1.000000000000000000 ) ) ;
#933 = UNCERTAINTY_MEASURE_WITH_UNIT (LENGTH_MEASURE( 1.000000000000000082E-05 ), #181, 'distance_accuracy_value', 'NONE');
#934 = EDGE_LOOP ( 'NONE', ( #29, #1096, #561 ) ) ;
#935 = CARTESIAN_POINT ( 'NONE',  ( 0.3799999999999997269, 0.5300000000000000266, 0.7800000000000002487 ) ) ;
#936 = VERTEX_POINT ( 'NONE', #439 ) ;
#937 = ORIENTED_EDGE ( 'NONE', *, *, #212, .T. ) ;
#938 = EDGE_CURVE ( 'NONE', #491, #1266, #1177, .T. ) ;
#939 = CARTESIAN_POINT ( 'NONE',  ( 0.1500000000191903382, 0.02000000000000005246, -0.7799999999999999156 ) ) ;
#940 = DIRECTION ( 'NONE',  ( 0.0000000000000000000, 0.0000000000000000000, -1.000000000000000000 ) ) ;
#941 = ADVANCED_FACE ( 'NONE', ( #147 ), #540, .T. ) ;
#942 = DIRECTION ( 'NONE',  ( 0.0000000000000000000, 1.000000000000000000, 0.0000000000000000000 ) ) ;
#943 = DIRECTION ( 'NONE',  ( 0.0000000000000000000, 0.0000000000000000000, 1.000000000000000000 ) ) ;
#944 = COLOUR_RGB ( '',0.7921568627450980005, 0.8196078431372548767, 0.9333333333333333481 ) ;
#945 = VECTOR ( 'NONE', #1033, 1000.000000000000000 ) ;
#946 = DIRECTION ( 'NONE',  ( 0.0000000000000000000, 0.0000000000000000000, -1.000000000000000000 ) ) ;
#947 = LINE ( 'NONE', #36, #1273 ) ;
#948 = CARTESIAN_POINT ( 'NONE',  ( 500000.0000000000582, 0.02000000000000005246, 0.7799999999566321618 ) ) ;
#949 = EDGE_CURVE ( 'NONE', #654, #576, #474, .T. ) ;
#950 = CYLINDRICAL_SURFACE ( 'NONE', #37, 0.02000000000000005246 ) ;
#951 = ORIENTED_EDGE ( 'NONE', *, *, #426, .T. ) ;
#952 = EDGE_LOOP ( 'NONE', ( #402, #657, #755, #673 ) ) ;
#953 = DIRECTION ( 'NONE',  ( -1.000000000000000000, 0.0000000000000000000, 8.673617379884036705E-17 ) ) ;
#954 = ORIENTED_EDGE ( 'NONE', *, *, #949, .F. ) ;
#955 = ADVANCED_FACE ( 'NONE', ( #396 ), #1057, .F. ) ;
#956 = AXIS2_PLACEMENT_3D ( 'NONE', #968, #376, #671 ) ;
#957 = DIRECTION ( 'NONE',  ( -1.694065894508600185E-16, 0.0000000000000000000, 1.000000000000000000 ) ) ;
#958 = SURFACE_STYLE_USAGE ( .BOTH. , #747 ) ;
#959 = DIRECTION ( 'NONE',  ( -8.673617379884036705E-17, 0.0000000000000000000, -1.000000000000000000 ) ) ;
#960 = VECTOR ( 'NONE', #778, 1000.000000000000000 ) ;
#961 = CARTESIAN_POINT ( 'NONE',  ( 0.1499999999999999667, 0.5500000000000000444, -0.7799999999999999156 ) ) ;
#962 = EDGE_CURVE ( 'NONE', #1185, #709, #569, .T. ) ;
#963 = VECTOR ( 'NONE', #658, 1000.000000000000000 ) ;
#964 = CIRCLE ( 'NONE', #646, 0.02000000000000005246 ) ;
#965 = ORIENTED_EDGE ( 'NONE', *, *, #888, .T. ) ;
#966 = DIRECTION ( 'NONE',  ( -1.000000000000000000, -0.0000000000000000000, 8.673617379884036705E-17 ) ) ;
#967 = VERTEX_POINT ( 'NONE', #460 ) ;
#968 = CARTESIAN_POINT ( 'NONE',  ( 0.3800000000000000044, 0.5300000000000000266, -0.7799999999999999156 ) ) ;
#969 = ORIENTED_EDGE ( 'NONE', *, *, #518, .F. ) ;
#970 = ORIENTED_EDGE ( 'NONE', *, *, #148, .F. ) ;
#971 = EDGE_CURVE ( 'NONE', #873, #591, #177, .T. ) ;
#972 =( LENGTH_UNIT ( ) NAMED_UNIT ( * ) SI_UNIT ( .MILLI., .METRE. ) );
#973 = PRESENTATION_LAYER_ASSIGNMENT (  '', '', ( #922 ) ) ;
#974 = CARTESIAN_POINT ( 'NONE',  ( -0.1499999999999997446, 0.5500000000000000444, 0.7800000000000003597 ) ) ;
#975 = CARTESIAN_POINT ( 'NONE',  ( 0.1499999999999997446, 0.0000000000000000000, 0.7800000000000003597 ) ) ;
#976 = CIRCLE ( 'NONE', #201, 0.01333333333333340531 ) ;
#977 = CIRCLE ( 'NONE', #280, 0.02000000000000005246 ) ;
#978 = AXIS2_PLACEMENT_3D ( 'NONE', #608, #704, #806 ) ;
#979 = ORIENTED_EDGE ( 'NONE', *, *, #91, .T. ) ;
#980 = DIRECTION ( 'NONE',  ( 0.0000000000000000000, 0.0000000000000000000, -1.000000000000000000 ) ) ;
#981 = EDGE_LOOP ( 'NONE', ( #885, #84, #886, #672 ) ) ;
#982 = ORIENTED_EDGE ( 'NONE', *, *, #1007, .F. ) ;
#983 = DIRECTION ( 'NONE',  ( 0.0000000000000000000, 0.0000000000000000000, 1.000000000000000000 ) ) ;
#984 = CARTESIAN_POINT ( 'NONE',  ( -0.3999999999999997446, 0.5300000000000000266, 0.8000000000000002665 ) ) ;
#985 = LINE ( 'NONE', #257, #722 ) ;
#986 = EDGE_CURVE ( 'NONE', #197, #1232, #663, .T. ) ;
#987 = AXIS2_PLACEMENT_3D ( 'NONE', #271, #651, #79 ) ;
#988 =( NAMED_UNIT ( * ) PLANE_ANGLE_UNIT ( ) SI_UNIT ( $, .RADIAN. ) );
#989 = ORIENTED_EDGE ( 'NONE', *, *, #370, .T. ) ;
#990 = DIRECTION ( 'NONE',  ( 1.694065894508600185E-16, -0.0000000000000000000, 1.000000000000000000 ) ) ;
#991 = ORIENTED_EDGE ( 'NONE', *, *, #277, .T. ) ;
#992 = PRESENTATION_LAYER_ASSIGNMENT (  '', '', ( #661 ) ) ;
#993 = ORIENTED_EDGE ( 'NONE', *, *, #356, .T. ) ;
#994 = EDGE_LOOP ( 'NONE', ( #784, #314, #1156, #728 ) ) ;
#995 = CARTESIAN_POINT ( 'NONE',  ( -0.1499999999999999667, 0.5300000000000000266, -0.7999999999999999334 ) ) ;
#996 = EDGE_CURVE ( 'NONE', #510, #653, #863, .T. ) ;
#997 = LINE ( 'NONE', #1141, #267 ) ;
#998 = CARTESIAN_POINT ( 'NONE',  ( 0.3799999999999997824, 0.5500000000000000444, 0.7800000000000002487 ) ) ;
#999 = LINE ( 'NONE', #1052, #945 ) ;
#1000 = DIRECTION ( 'NONE',  ( -1.355252715606880296E-16, 0.0000000000000000000, 1.000000000000000000 ) ) ;
#1001 = VECTOR ( 'NONE', #317, 1000.000000000000000 ) ;
#1002 = VERTEX_POINT ( 'NONE', #1064 ) ;
#1003 = ORIENTED_EDGE ( 'NONE', *, *, #605, .F. ) ;
#1004 = DIRECTION ( 'NONE',  ( 1.000000000000000000, 0.0000000000000000000, 1.355252715606880296E-16 ) ) ;
#1005 = ADVANCED_FACE ( 'NONE', ( #343 ), #1249, .T. ) ;
#1006 = ORIENTED_EDGE ( 'NONE', *, *, #853, .T. ) ;
#1007 = EDGE_CURVE ( 'NONE', #578, #1027, #6, .T. ) ;
#1008 = ORIENTED_EDGE ( 'NONE', *, *, #407, .F. ) ;
#1009 = CARTESIAN_POINT ( 'NONE',  ( -0.1499999999999999667, 0.5500000000000000444, -0.7999999999999999334 ) ) ;
#1010 = DIRECTION ( 'NONE',  ( 0.0000000000000000000, -1.000000000000000000, 0.0000000000000000000 ) ) ;
#1011 = AXIS2_PLACEMENT_3D ( 'NONE', #337, #837, #843 ) ;
#1012 = CARTESIAN_POINT ( 'NONE',  ( 0.1499999999999999667, 0.02000000000000005246, -0.7799999999999999156 ) ) ;
#1013 = ADVANCED_FACE ( 'NONE', ( #1054 ), #1101, .T. ) ;
#1014 = CARTESIAN_POINT ( 'NONE',  ( -0.3799999999999998934, 0.5300000000000000266, 6.437450399132678879E-17 ) ) ;
#1015 = DIRECTION ( 'NONE',  ( -0.0000000000000000000, 1.000000000000000000, 0.0000000000000000000 ) ) ;
#1016 = AXIS2_PLACEMENT_3D ( 'NONE', #600, #1123, #905 ) ;
#1017 = DIRECTION ( 'NONE',  ( -1.000000000000000000, 0.0000000000000000000, -0.0000000000000000000 ) ) ;
#1018 = CIRCLE ( 'NONE', #1036, 0.01333333333333340531 ) ;
#1019 = DIRECTION ( 'NONE',  ( 0.0000000000000000000, 1.000000000000000000, 0.0000000000000000000 ) ) ;
#1020 = FACE_OUTER_BOUND ( 'NONE', #696, .T. ) ;
#1021 = CARTESIAN_POINT ( 'NONE',  ( -0.1499999999999999112, 0.5300000000000000266, -0.7799999999999999156 ) ) ;
#1022 = ADVANCED_FACE ( 'NONE', ( #278 ), #316, .F. ) ;
#1023 = CARTESIAN_POINT ( 'NONE',  ( -0.1499999999999997446, 0.02000000000000005246, 0.7800000000000002487 ) ) ;
#1024 = FACE_OUTER_BOUND ( 'NONE', #1215, .T. ) ;
#1025 = ORIENTED_EDGE ( 'NONE', *, *, #680, .T. ) ;
#1026 = EDGE_CURVE ( 'NONE', #156, #1027, #679, .T. ) ;
#1027 = VERTEX_POINT ( 'NONE', #516 ) ;
#1028 = CARTESIAN_POINT ( 'NONE',  ( 0.3800000000000000600, 0.5300000000000000266, -0.7799999999999999156 ) ) ;
#1029 = CARTESIAN_POINT ( 'NONE',  ( 500000.0000000000582, 0.02000000000000005246, -0.7800000000433680025 ) ) ;
#1030 = ORIENTED_EDGE ( 'NONE', *, *, #245, .F. ) ;
#1031 = ADVANCED_FACE ( 'NONE', ( #502 ), #804, .F. ) ;
#1032 = CARTESIAN_POINT ( 'NONE',  ( 0.1500000000191903382, 0.006666666666666658421, 0.7800000000000003597 ) ) ;
#1033 = DIRECTION ( 'NONE',  ( -0.0000000000000000000, -1.000000000000000000, -0.0000000000000000000 ) ) ;
#1034 = CARTESIAN_POINT ( 'NONE',  ( 0.3800000000000000044, 0.02000000000000000042, -0.7799999999999999156 ) ) ;
#1035 = EDGE_CURVE ( 'NONE', #873, #199, #92, .T. ) ;
#1036 = AXIS2_PLACEMENT_3D ( 'NONE', #649, #1038, #1242 ) ;
#1037 = CIRCLE ( 'NONE', #4, 0.01999999999999999695 ) ;
#1038 = DIRECTION ( 'NONE',  ( 1.000000000000000000, 0.0000000000000000000, -8.673617379884036705E-17 ) ) ;
#1039 = ADVANCED_FACE ( 'NONE', ( #889 ), #113, .T. ) ;
#1040 = CARTESIAN_POINT ( 'NONE',  ( -0.1499999999999997724, 0.02000000000000026756, 0.7933333333333335569 ) ) ;
#1041 = FILL_AREA_STYLE_COLOUR ( '', #77 ) ;
#1042 = PLANE ( 'NONE',  #186 ) ;
#1043 = CIRCLE ( 'NONE', #902, 0.02000000000000005246 ) ;
#1044 = ORIENTED_EDGE ( 'NONE', *, *, #921, .T. ) ;
#1045 = DIRECTION ( 'NONE',  ( 1.000000000000000000, 0.0000000000000000000, 0.0000000000000000000 ) ) ;
#1046 = CARTESIAN_POINT ( 'NONE',  ( 0.0000000000000000000, 0.0000000000000000000, -0.7799999999999999156 ) ) ;
#1047 = ORIENTED_EDGE ( 'NONE', *, *, #670, .T. ) ;
#1048 = ORIENTED_EDGE ( 'NONE', *, *, #153, .F. ) ;
#1049 = ORIENTED_EDGE ( 'NONE', *, *, #15, .F. ) ;
#1050 = AXIS2_PLACEMENT_3D ( 'NONE', #146, #253, #940 ) ;
#1051 = CARTESIAN_POINT ( 'NONE',  ( 0.0000000000000000000, 0.5300000000000000266, -0.7799999999999999156 ) ) ;
#1052 = CARTESIAN_POINT ( 'NONE',  ( -0.1499999999999999667, 0.5500000000000000444, -0.7999999999999999334 ) ) ;
#1053 = DIRECTION ( 'NONE',  ( -1.000000000000000000, 0.0000000000000000000, 0.0000000000000000000 ) ) ;
#1054 = FACE_OUTER_BOUND ( 'NONE', #934, .T. ) ;
#1055 = APPLICATION_PROTOCOL_DEFINITION ( 'draft international standard', 'automotive_design', 1998, #364 ) ;
#1056 = FACE_OUTER_BOUND ( 'NONE', #593, .T. ) ;
#1057 = PLANE ( 'NONE',  #374 ) ;
#1058 = EDGE_CURVE ( 'NONE', #1077, #1129, #301, .T. ) ;
#1059 = FACE_OUTER_BOUND ( 'NONE', #224, .T. ) ;
#1060 =( NAMED_UNIT ( * ) PLANE_ANGLE_UNIT ( ) SI_UNIT ( $, .RADIAN. ) );
#1061 = CARTESIAN_POINT ( 'NONE',  ( -0.1499999999999999667, 0.02000000000000005246, -0.7999999999999999334 ) ) ;
#1062 = ORIENTED_EDGE ( 'NONE', *, *, #1260, .T. ) ;
#1063 = ORIENTED_EDGE ( 'NONE', *, *, #636, .F. ) ;
#1064 = CARTESIAN_POINT ( 'NONE',  ( -0.1499999999999997446, 0.02000000000000005246, 0.8000000000000002665 ) ) ;
#1065 = EDGE_CURVE ( 'NONE', #510, #109, #236, .T. ) ;
#1066 = AXIS2_PLACEMENT_3D ( 'NONE', #1217, #812, #140 ) ;
#1067 = VERTEX_POINT ( 'NONE', #1203 ) ;
#1068 = ORIENTED_EDGE ( 'NONE', *, *, #153, .T. ) ;
#1069 = AXIS2_PLACEMENT_3D ( 'NONE', #422, #623, #326 ) ;
#1070 = FILL_AREA_STYLE ('',( #1041 ) ) ;
#1071 = CARTESIAN_POINT ( 'NONE',  ( 0.4000000000000000222, 0.5500000000000000444, -0.7999999999999999334 ) ) ;
#1072 = DIRECTION ( 'NONE',  ( -1.000000000000000000, 0.0000000000000000000, 0.0000000000000000000 ) ) ;
#1073 = CIRCLE ( 'NONE', #482, 0.02000000000000005246 ) ;
#1074 = EDGE_CURVE ( 'NONE', #452, #873, #408, .T. ) ;
#1075 = VECTOR ( 'NONE', #779, 1000.000000000000000 ) ;
#1076 = CYLINDRICAL_SURFACE ( 'NONE', #775, 0.02000000000000005246 ) ;
#1077 = VERTEX_POINT ( 'NONE', #40 ) ;
#1078 = ORIENTED_EDGE ( 'NONE', *, *, #401, .F. ) ;
#1079 = DIRECTION ( 'NONE',  ( 0.0000000000000000000, -1.000000000000000000, 0.0000000000000000000 ) ) ;
#1080 = ORIENTED_EDGE ( 'NONE', *, *, #76, .T. ) ;
#1081 = ORIENTED_EDGE ( 'NONE', *, *, #55, .T. ) ;
#1082 = DIRECTION ( 'NONE',  ( 0.0000000000000000000, 0.0000000000000000000, 1.000000000000000000 ) ) ;
#1083 = DIRECTION ( 'NONE',  ( 0.0000000000000000000, 0.0000000000000000000, -1.000000000000000000 ) ) ;
#1084 = DIRECTION ( 'NONE',  ( 0.0000000000000000000, -1.000000000000000000, -0.0000000000000000000 ) ) ;
#1085 = DIRECTION ( 'NONE',  ( -1.000000000000000000, 0.0000000000000000000, 0.0000000000000000000 ) ) ;
#1086 = DIRECTION ( 'NONE',  ( 0.0000000000000000000, 0.0000000000000000000, 1.000000000000000000 ) ) ;
#1087 = FACE_OUTER_BOUND ( 'NONE', #353, .T. ) ;
#1088 = CIRCLE ( 'NONE', #58, 0.01999999999999999695 ) ;
#1089 = FACE_OUTER_BOUND ( 'NONE', #994, .T. ) ;
#1090 = CARTESIAN_POINT ( 'NONE',  ( 0.1500000000191903382, 0.006666666666666666227, -0.7799999999999994715 ) ) ;
#1091 =( GEOMETRIC_REPRESENTATION_CONTEXT ( 3 ) GLOBAL_UNCERTAINTY_ASSIGNED_CONTEXT ( ( #381 ) ) GLOBAL_UNIT_ASSIGNED_CONTEXT ( ( #675, #1060, #1157 ) ) REPRESENTATION_CONTEXT ( 'NONE', 'WORKASPACE' ) );
#1092 = VECTOR ( 'NONE', #315, 1000.000000000000000 ) ;
#1093 = CARTESIAN_POINT ( 'NONE',  ( 0.3800000000000000044, 0.5500000000000000444, -0.7999999999999999334 ) ) ;
#1094 = ORIENTED_EDGE ( 'NONE', *, *, #824, .F. ) ;
#1095 = VERTEX_POINT ( 'NONE', #907 ) ;
#1096 = ORIENTED_EDGE ( 'NONE', *, *, #858, .T. ) ;
#1097 = DIRECTION ( 'NONE',  ( -0.0000000000000000000, 1.000000000000000000, -0.0000000000000000000 ) ) ;
#1098 = EDGE_CURVE ( 'NONE', #382, #666, #1037, .T. ) ;
#1099 = CARTESIAN_POINT ( 'NONE',  ( 500000.0000000000582, 0.5300000000000000266, 0.7799999999566321618 ) ) ;
#1100 = EDGE_CURVE ( 'NONE', #210, #967, #427, .T. ) ;
#1101 = SPHERICAL_SURFACE ( 'NONE', #222, 0.02000000000000000042 ) ;
#1102 = CIRCLE ( 'NONE', #749, 0.02000000000000005246 ) ;
#1103 = AXIS2_PLACEMENT_3D ( 'NONE', #620, #120, #424 ) ;
#1104 =( GEOMETRIC_REPRESENTATION_CONTEXT ( 3 ) GLOBAL_UNCERTAINTY_ASSIGNED_CONTEXT ( ( #252 ) ) GLOBAL_UNIT_ASSIGNED_CONTEXT ( ( #737, #430, #533 ) ) REPRESENTATION_CONTEXT ( 'NONE', 'WORKASPACE' ) );
#1105 = CYLINDRICAL_SURFACE ( 'NONE', #125, 0.01999999999999999695 ) ;
#1106 = ORIENTED_EDGE ( 'NONE', *, *, #55, .F. ) ;
#1107 = ADVANCED_FACE ( 'NONE', ( #165 ), #520, .T. ) ;
#1108 = DIRECTION ( 'NONE',  ( 1.000000000000000000, -0.0000000000000000000, -0.0000000000000000000 ) ) ;
#1109 = ORIENTED_EDGE ( 'NONE', *, *, #636, .T. ) ;
#1110 = ORIENTED_EDGE ( 'NONE', *, *, #164, .F. ) ;
#1111 = CARTESIAN_POINT ( 'NONE',  ( -0.1499999999999999112, 0.02000000000000005246, -0.7933333333333333348 ) ) ;
#1112 = EDGE_LOOP ( 'NONE', ( #511, #69, #263, #1229 ) ) ;
#1113 = CARTESIAN_POINT ( 'NONE',  ( 0.0000000000000000000, 0.0000000000000000000, 0.0000000000000000000 ) ) ;
#1114 = DIRECTION ( 'NONE',  ( 0.0000000000000000000, -1.000000000000000000, 0.0000000000000000000 ) ) ;
#1115 = AXIS2_PLACEMENT_3D ( 'NONE', #809, #618, #43 ) ;
#1116 = DIRECTION ( 'NONE',  ( -1.000000000000000000, -0.0000000000000000000, 8.673617379884036705E-17 ) ) ;
#1117 = SURFACE_STYLE_FILL_AREA ( #1268 ) ;
#1118 = DIRECTION ( 'NONE',  ( 0.0000000000000000000, -1.000000000000000000, 0.0000000000000000000 ) ) ;
#1119 = CARTESIAN_POINT ( 'NONE',  ( 0.0000000000000000000, 0.0000000000000000000, 0.7800000000000002487 ) ) ;
#1120 = ADVANCED_FACE ( 'NONE', ( #254 ), #1270, .T. ) ;
#1121 = LINE ( 'NONE', #371, #850 ) ;
#1122 = LINE ( 'NONE', #250, #1198 ) ;
#1123 = DIRECTION ( 'NONE',  ( 1.000000000000000000, 0.0000000000000000000, -8.673617379884036705E-17 ) ) ;
#1124 = ORIENTED_EDGE ( 'NONE', *, *, #805, .F. ) ;
#1125 = DIRECTION ( 'NONE',  ( -1.000000000000000000, 0.0000000000000000000, -2.710505431213754380E-15 ) ) ;
#1126 = DIRECTION ( 'NONE',  ( -1.694065894508600185E-16, 0.0000000000000000000, -1.000000000000000000 ) ) ;
#1127 = ORIENTED_EDGE ( 'NONE', *, *, #949, .T. ) ;
#1128 = DIRECTION ( 'NONE',  ( 1.000000000000000000, -0.0000000000000000000, -0.0000000000000000000 ) ) ;
#1129 = VERTEX_POINT ( 'NONE', #1239 ) ;
#1130 = VERTEX_POINT ( 'NONE', #1061 ) ;
#1131 = CARTESIAN_POINT ( 'NONE',  ( 0.1499999999999999667, 0.5500000000000000444, -0.7999999999999999334 ) ) ;
#1132 = EDGE_CURVE ( 'NONE', #967, #199, #736, .T. ) ;
#1133 = MECHANICAL_DESIGN_GEOMETRIC_PRESENTATION_REPRESENTATION (  '', ( #609 ), #1261 ) ;
#1134 = DIRECTION ( 'NONE',  ( -1.694065894508600185E-16, 0.0000000000000000000, 1.000000000000000000 ) ) ;
#1135 = ADVANCED_FACE ( 'NONE', ( #217 ), #701, .T. ) ;
#1136 = DIRECTION ( 'NONE',  ( 0.0000000000000000000, 0.0000000000000000000, 1.000000000000000000 ) ) ;
#1137 = AXIS2_PLACEMENT_3D ( 'NONE', #124, #395, #112 ) ;
#1138 = VECTOR ( 'NONE', #1114, 1000.000000000000000 ) ;
#1139 = CIRCLE ( 'NONE', #111, 0.02000000000000005246 ) ;
#1140 = DIRECTION ( 'NONE',  ( 0.0000000000000000000, 0.0000000000000000000, 1.000000000000000000 ) ) ;
#1141 = CARTESIAN_POINT ( 'NONE',  ( 0.3799999999999998934, 0.0000000000000000000, 6.437450399132678879E-17 ) ) ;
#1142 = CARTESIAN_POINT ( 'NONE',  ( 0.0000000000000000000, 0.0000000000000000000, 0.7800000000000002487 ) ) ;
#1143 = LINE ( 'NONE', #225, #1092 ) ;
#1144 = ORIENTED_EDGE ( 'NONE', *, *, #868, .F. ) ;
#1145 = ORIENTED_EDGE ( 'NONE', *, *, #921, .F. ) ;
#1146 = DIRECTION ( 'NONE',  ( 1.000000000000000000, -0.0000000000000000000, -1.355252715606880296E-16 ) ) ;
#1147 = DIRECTION ( 'NONE',  ( 1.000000000000000000, 0.0000000000000000000, 1.355252715606880296E-16 ) ) ;
#1148 = ORIENTED_EDGE ( 'NONE', *, *, #780, .T. ) ;
#1149 = CARTESIAN_POINT ( 'NONE',  ( 500000.0000000000582, 0.5433333333333333348, 0.7799999999566318287 ) ) ;
#1150 = CARTESIAN_POINT ( 'NONE',  ( 0.1500000000191903382, 0.5433333333333333348, 0.7799999999999999156 ) ) ;
#1151 = SPHERICAL_SURFACE ( 'NONE', #884, 0.02000000000000000042 ) ;
#1152 = VECTOR ( 'NONE', #62, 1000.000000000000000 ) ;
#1153 = DIRECTION ( 'NONE',  ( 1.000000000000000000, 0.0000000000000000000, 0.0000000000000000000 ) ) ;
#1154 = ORIENTED_EDGE ( 'NONE', *, *, #630, .F. ) ;
#1155 = AXIS2_PLACEMENT_3D ( 'NONE', #1131, #712, #27 ) ;
#1156 = ORIENTED_EDGE ( 'NONE', *, *, #1161, .T. ) ;
#1157 =( NAMED_UNIT ( * ) SI_UNIT ( $, .STERADIAN. ) SOLID_ANGLE_UNIT ( ) );
#1158 = ORIENTED_EDGE ( 'NONE', *, *, #962, .F. ) ;
#1159 = AXIS2_PLACEMENT_3D ( 'NONE', #214, #1210, #25 ) ;
#1160 = CARTESIAN_POINT ( 'NONE',  ( 0.4000000000000000222, 0.02000000000000005246, -0.7999999999999999334 ) ) ;
#1161 = EDGE_CURVE ( 'NONE', #1235, #133, #1018, .T. ) ;
#1162 = CIRCLE ( 'NONE', #412, 0.02000000000000005246 ) ;
#1163 = DIRECTION ( 'NONE',  ( 1.000000000000000000, 0.0000000000000000000, -0.0000000000000000000 ) ) ;
#1164 = LINE ( 'NONE', #158, #219 ) ;
#1165 = SURFACE_STYLE_USAGE ( .BOTH. , #772 ) ;
#1166 = EDGE_CURVE ( 'NONE', #452, #936, #375, .T. ) ;
#1167 = CYLINDRICAL_SURFACE ( 'NONE', #978, 0.02000000000000005246 ) ;
#1168 = EDGE_LOOP ( 'NONE', ( #909, #883, #1259, #52 ) ) ;
#1169 = ORIENTED_EDGE ( 'NONE', *, *, #695, .T. ) ;
#1170 = AXIS2_PLACEMENT_3D ( 'NONE', #882, #1079, #1072 ) ;
#1171 = CARTESIAN_POINT ( 'NONE',  ( 0.1499999999999999667, 0.5500000000000000444, -0.7999999999999999334 ) ) ;
#1172 = AXIS2_PLACEMENT_3D ( 'NONE', #64, #138, #223 ) ;
#1173 = VERTEX_POINT ( 'NONE', #647 ) ;
#1174 = VERTEX_POINT ( 'NONE', #1248 ) ;
#1175 = DIRECTION ( 'NONE',  ( -1.000000000000000000, -0.0000000000000000000, 8.673617379884036705E-17 ) ) ;
#1176 = CARTESIAN_POINT ( 'NONE',  ( -0.3799999999999997269, 0.02000000000000005246, 0.7800000000000002487 ) ) ;
#1177 = LINE ( 'NONE', #1160, #1206 ) ;
#1178 = FACE_OUTER_BOUND ( 'NONE', #287, .T. ) ;
#1179 = AXIS2_PLACEMENT_3D ( 'NONE', #517, #531, #32 ) ;
#1180 = VECTOR ( 'NONE', #1116, 1000.000000000000000 ) ;
#1181 = PLANE ( 'NONE',  #485 ) ;
#1182 = LINE ( 'NONE', #327, #652 ) ;
#1183 = ORIENTED_EDGE ( 'NONE', *, *, #607, .T. ) ;
#1184 = CARTESIAN_POINT ( 'NONE',  ( 0.1499999999999999667, 0.0000000000000000000, -0.7999999999999999334 ) ) ;
#1185 = VERTEX_POINT ( 'NONE', #1032 ) ;
#1186 = ORIENTED_EDGE ( 'NONE', *, *, #90, .F. ) ;
#1187 = DIRECTION ( 'NONE',  ( -1.000000000000000000, 0.0000000000000000000, 0.0000000000000000000 ) ) ;
#1188 = CARTESIAN_POINT ( 'NONE',  ( -0.1499999999999999389, 0.5299999999999998046, -0.7933333333333333348 ) ) ;
#1189 = CARTESIAN_POINT ( 'NONE',  ( -0.3800000000000000044, 0.5300000000000000266, -0.7799999999999999156 ) ) ;
#1190 = CARTESIAN_POINT ( 'NONE',  ( 0.3999999999999997446, 0.5300000000000000266, 0.8000000000000002665 ) ) ;
#1191 = EDGE_CURVE ( 'NONE', #653, #666, #193, .T. ) ;
#1192 = AXIS2_PLACEMENT_3D ( 'NONE', #891, #211, #1187 ) ;
#1193 = VECTOR ( 'NONE', #227, 1000.000000000000000 ) ;
#1194 = CARTESIAN_POINT ( 'NONE',  ( 0.3799999999999997269, 0.5500000000000000444, 0.8000000000000002665 ) ) ;
#1195 = LINE ( 'NONE', #632, #293 ) ;
#1196 = DIRECTION ( 'NONE',  ( -1.000000000000000000, -0.0000000000000000000, -0.0000000000000000000 ) ) ;
#1197 = PLANE ( 'NONE',  #1265 ) ;
#1198 = VECTOR ( 'NONE', #239, 1000.000000000000000 ) ;
#1199 = AXIS2_PLACEMENT_3D ( 'NONE', #1012, #1226, #234 ) ;
#1200 = ORIENTED_EDGE ( 'NONE', *, *, #805, .T. ) ;
#1201 = ORIENTED_EDGE ( 'NONE', *, *, #744, .T. ) ;
#1202 = ORIENTED_EDGE ( 'NONE', *, *, #537, .T. ) ;
#1203 = CARTESIAN_POINT ( 'NONE',  ( 0.1499999999999997446, 0.5500000000000000444, 0.7800000000000003597 ) ) ;
#1204 = ADVANCED_FACE ( 'NONE', ( #1241 ), #1236, .T. ) ;
#1205 = DIRECTION ( 'NONE',  ( 0.0000000000000000000, -0.0000000000000000000, 1.000000000000000000 ) ) ;
#1206 = VECTOR ( 'NONE', #1153, 1000.000000000000000 ) ;
#1207 = DIRECTION ( 'NONE',  ( -1.000000000000000000, 0.0000000000000000000, 0.0000000000000000000 ) ) ;
#1208 = VECTOR ( 'NONE', #444, 1000.000000000000000 ) ;
#1209 = FACE_OUTER_BOUND ( 'NONE', #637, .T. ) ;
#1210 = DIRECTION ( 'NONE',  ( 0.0000000000000000000, -1.000000000000000000, 0.0000000000000000000 ) ) ;
#1211 = COLOUR_RGB ( '',0.4862745098039215619, 0.2352941176470588203, 0.01568627450980392135 ) ;
#1212 = DIRECTION ( 'NONE',  ( 0.0000000000000000000, -1.000000000000000000, -0.0000000000000000000 ) ) ;
#1213 = DIRECTION ( 'NONE',  ( 0.0000000000000000000, 1.000000000000000000, 0.0000000000000000000 ) ) ;
#1214 = ORIENTED_EDGE ( 'NONE', *, *, #456, .F. ) ;
#1215 = EDGE_LOOP ( 'NONE', ( #436, #989, #601 ) ) ;
#1216 = ORIENTED_EDGE ( 'NONE', *, *, #828, .F. ) ;
#1217 = CARTESIAN_POINT ( 'NONE',  ( -0.4000000000000000222, 0.02000000000000005246, -0.7799999999999999156 ) ) ;
#1218 = AXIS2_PLACEMENT_3D ( 'NONE', #410, #48, #706 ) ;
#1219 = CARTESIAN_POINT ( 'NONE',  ( 0.0000000000000000000, 0.0000000000000000000, -0.7799999999999999156 ) ) ;
#1220 = CARTESIAN_POINT ( 'NONE',  ( 0.3800000000000000044, 0.02000000000000005246, -0.7799999999999999156 ) ) ;
#1221 = DIRECTION ( 'NONE',  ( -1.000000000000000000, 0.0000000000000000000, 1.694065894508600925E-16 ) ) ;
#1222 = PRESENTATION_LAYER_ASSIGNMENT (  '', '', ( #594 ) ) ;
#1223 = CARTESIAN_POINT ( 'NONE',  ( -0.3800000000000000044, 0.5300000000000000266, -0.7799999999999999156 ) ) ;
#1224 = VECTOR ( 'NONE', #1212, 1000.000000000000000 ) ;
#1225 = DIRECTION ( 'NONE',  ( 1.694065894508600185E-16, 0.0000000000000000000, -1.000000000000000000 ) ) ;
#1226 = DIRECTION ( 'NONE',  ( 1.000000000000000000, 0.0000000000000000000, 1.355252715606880296E-16 ) ) ;
#1227 = CIRCLE ( 'NONE', #171, 0.02000000000000005246 ) ;
#1228 = EDGE_CURVE ( 'NONE', #873, #576, #833, .T. ) ;
#1229 = ORIENTED_EDGE ( 'NONE', *, *, #567, .F. ) ;
#1230 = CARTESIAN_POINT ( 'NONE',  ( 0.4000000000000000222, 0.5500000000000000444, -0.7799999999999999156 ) ) ;
#1231 = DIRECTION ( 'NONE',  ( 1.694065894508600185E-16, -0.0000000000000000000, -1.000000000000000000 ) ) ;
#1232 = VERTEX_POINT ( 'NONE', #1150 ) ;
#1233 = EDGE_CURVE ( 'NONE', #619, #604, #1162, .T. ) ;
#1234 = EDGE_LOOP ( 'NONE', ( #363, #454, #1106, #354 ) ) ;
#1235 = VERTEX_POINT ( 'NONE', #67 ) ;
#1236 = PLANE ( 'NONE',  #56 ) ;
#1237 = EDGE_CURVE ( 'NONE', #709, #351, #751, .T. ) ;
#1238 = AXIS2_PLACEMENT_3D ( 'NONE', #1028, #163, #243 ) ;
#1239 = CARTESIAN_POINT ( 'NONE',  ( -0.3800000000000000044, 0.5300000000000000266, -0.7999999999999999334 ) ) ;
#1240 = DIRECTION ( 'NONE',  ( 0.0000000000000000000, -0.0000000000000000000, 1.000000000000000000 ) ) ;
#1241 = FACE_OUTER_BOUND ( 'NONE', #110, .T. ) ;
#1242 = DIRECTION ( 'NONE',  ( 0.0000000000000000000, 0.0000000000000000000, -1.000000000000000000 ) ) ;
#1243 = FACE_OUTER_BOUND ( 'NONE', #481, .T. ) ;
#1244 = CARTESIAN_POINT ( 'NONE',  ( -0.3799999999999997824, 0.5300000000000000266, 0.7800000000000002487 ) ) ;
#1245 = AXIS2_PLACEMENT_3D ( 'NONE', #340, #435, #154 ) ;
#1246 = ORIENTED_EDGE ( 'NONE', *, *, #887, .F. ) ;
#1247 = ORIENTED_EDGE ( 'NONE', *, *, #887, .T. ) ;
#1248 = CARTESIAN_POINT ( 'NONE',  ( 0.3799999999999997269, 0.0000000000000000000, 0.7800000000000002487 ) ) ;
#1249 = PLANE ( 'NONE',  #289 ) ;
#1250 = ADVANCED_FACE ( 'NONE', ( #631 ), #638, .F. ) ;
#1251 = EDGE_LOOP ( 'NONE', ( #330, #930, #982, #54, #643, #969, #135, #308 ) ) ;
#1252 = CARTESIAN_POINT ( 'NONE',  ( 0.3800000000000000044, 0.02000000000000005246, -0.7999999999999999334 ) ) ;
#1253 = CARTESIAN_POINT ( 'NONE',  ( 0.4000000000000000222, 0.02000000000000005246, -0.7999999999999999334 ) ) ;
#1254 = ADVANCED_FACE ( 'NONE', ( #457 ), #203, .T. ) ;
#1255 = CARTESIAN_POINT ( 'NONE',  ( 0.1500000000191903382, 0.006666666666666666227, 0.7799999998888695885 ) ) ;
#1256 = VECTOR ( 'NONE', #446, 1000.000000000000000 ) ;
#1257 = VECTOR ( 'NONE', #1272, 1000.000000000000000 ) ;
#1258 = DIRECTION ( 'NONE',  ( -2.710505431213753985E-15, -1.000000000000000000, 0.0000000000000000000 ) ) ;
#1259 = ORIENTED_EDGE ( 'NONE', *, *, #1, .F. ) ;
#1260 = EDGE_CURVE ( 'NONE', #378, #668, #985, .T. ) ;
#1261 =( GEOMETRIC_REPRESENTATION_CONTEXT ( 3 ) GLOBAL_UNCERTAINTY_ASSIGNED_CONTEXT ( ( #697 ) ) GLOBAL_UNIT_ASSIGNED_CONTEXT ( ( #750, #377, #368 ) ) REPRESENTATION_CONTEXT ( 'NONE', 'WORKASPACE' ) );
#1262 = ORIENTED_EDGE ( 'NONE', *, *, #300, .F. ) ;
#1263 = DIRECTION ( 'NONE',  ( 0.0000000000000000000, 0.0000000000000000000, -1.000000000000000000 ) ) ;
#1264 = ORIENTED_EDGE ( 'NONE', *, *, #537, .F. ) ;
#1265 = AXIS2_PLACEMENT_3D ( 'NONE', #1113, #1213, #1205 ) ;
#1266 = VERTEX_POINT ( 'NONE', #336 ) ;
#1267 = DIRECTION ( 'NONE',  ( 1.000000000000000000, 0.0000000000000000000, -8.673617379884036705E-17 ) ) ;
#1268 = FILL_AREA_STYLE ('',( #825 ) ) ;
#1269 = CARTESIAN_POINT ( 'NONE',  ( 500000.0000000000582, 0.02000000000000005246, -0.7933333333767014217 ) ) ;
#1270 = CYLINDRICAL_SURFACE ( 'NONE', #393, 0.02000000000000005246 ) ;
#1271 = VECTOR ( 'NONE', #543, 1000.000000000000000 ) ;
#1272 = DIRECTION ( 'NONE',  ( 1.000000000000000000, -0.0000000000000000000, 0.0000000000000000000 ) ) ;
#1273 = VECTOR ( 'NONE', #990, 1000.000000000000000 ) ;
#1274 = VECTOR ( 'NONE', #39, 1000.000000000000000 ) ;
#1275 = DIRECTION ( 'NONE',  ( -0.0000000000000000000, 1.000000000000000000, -0.0000000000000000000 ) ) ;
#1276 = ORIENTED_EDGE ( 'NONE', *, *, #477, .T. ) ;
#1277 =( NAMED_UNIT ( * ) SI_UNIT ( $, .STERADIAN. ) SOLID_ANGLE_UNIT ( ) );
#1278 = UNCERTAINTY_MEASURE_WITH_UNIT (LENGTH_MEASURE( 1.000000000000000082E-05 ), #972, 'distance_accuracy_value', 'NONE');
#1279 = ORIENTED_EDGE ( 'NONE', *, *, #831, .T. ) ;
#1280 = ORIENTED_EDGE ( 'NONE', *, *, #477, .F. ) ;
ENDSEC;
END-ISO-10303-21;
